<svg version="1.1" xmlns="http://www.w3.org/2000/svg" xmlns:xlink="http://www.w3.org/1999/xlink" stroke-linecap="round" stroke-linejoin="round" stroke-width="0" fill-rule="evenodd" clip-rule="evenodd" id="iumri1lnbtsTFuejHTB9_bottom" viewBox="7747 14326.1 80999.83 53999.9" width="80.99983mm" height="53.999900000000004mm" class="w-100 h-100"><defs><style>.iumri1lnbtsTFuejHTB9_fr4 {color: #666666;}
.iumri1lnbtsTFuejHTB9_cu {color: #cccccc;}
.iumri1lnbtsTFuejHTB9_cf {color: #cc9933;}
.iumri1lnbtsTFuejHTB9_sm {color: #004200; opacity: 0.75;}
.iumri1lnbtsTFuejHTB9_ss {color: #ffffff;}
.iumri1lnbtsTFuejHTB9_sp {color: #999999;}
.iumri1lnbtsTFuejHTB9_out {color: #000000;}</style><rect x="-1249.9975" y="-999.998" width="2499.995" height="1999.996" rx="999.998" ry="999.998" id="Zjyn7x68kcANdfowbl2c_pad-11"/><circle cx="0" cy="0" r="1000" id="Zjyn7x68kcANdfowbl2c_pad-12"/><rect x="-1000" y="-1000" width="2000" height="2000" id="Zjyn7x68kcANdfowbl2c_pad-13"/><circle cx="0" cy="0" r="1100" id="Zjyn7x68kcANdfowbl2c_pad-14"/><rect x="-899.9982" y="-1299.9974" width="1799.9964" height="2599.9948" rx="899.9982" ry="899.9982" id="Zjyn7x68kcANdfowbl2c_pad-15"/><rect x="-900" y="-1300" width="1800" height="2600" id="Zjyn7x68kcANdfowbl2c_pad-16"/><rect x="-1300.7975" y="-1050.798" width="2601.595" height="2101.596" rx="1050.798" ry="1050.798" id="fRTdxRXhKVDU5b3Du_g8_pad-10"/><circle cx="0" cy="0" r="1050.8" id="fRTdxRXhKVDU5b3Du_g8_pad-11"/><g id="fRTdxRXhKVDU5b3Du_g8_pad-12"><circle cx="1000" cy="1000" r="50.8"/><circle cx="1000" cy="0" r="50.8"/><circle cx="-1000" cy="-1000" r="50.8"/><circle cx="-1000" cy="0" r="50.8"/><polygon points="1050.8,1000 1050.8,NaN 949.2,NaN 949.2,1000"/><polygon points="1050.8,NaN -949.2,-1000 -1050.8,-1000 949.2,NaN"/><polygon points="-949.2,-1000 -949.2,NaN -1050.8,NaN -1050.8,-1000"/><polygon points="-949.2,NaN 1050.8,1000 949.2,1000 -1050.8,NaN"/><polygon points="NaN,NaN NaN,NaN NaN,NaN NaN,NaN"/></g><circle cx="0" cy="0" r="1101.6" id="fRTdxRXhKVDU5b3Du_g8_pad-13"/><circle cx="0" cy="0" r="1150.8" id="fRTdxRXhKVDU5b3Du_g8_pad-14"/><rect x="-950.7982" y="-1350.7974" width="1901.5964" height="2701.5948" rx="950.7982" ry="950.7982" id="fRTdxRXhKVDU5b3Du_g8_pad-15"/><g id="fRTdxRXhKVDU5b3Du_g8_pad-16"><circle cx="900" cy="0" r="50.8"/><circle cx="0" cy="0" r="50.8"/><circle cx="-900" cy="0" r="50.8"/><circle cx="0" cy="0" r="50.8"/><polygon points="950.8,NaN NaN,NaN NaN,NaN 849.2,NaN"/><polygon points="NaN,NaN -849.2,NaN -950.8,NaN NaN,NaN"/><polygon points="-849.2,NaN NaN,NaN NaN,NaN -950.8,NaN"/><polygon points="NaN,NaN 950.8,NaN 849.2,NaN NaN,NaN"/><polygon points="NaN,NaN NaN,NaN NaN,NaN NaN,NaN"/></g><circle cx="0" cy="0" r="450.5" id="AyfipWqQIYO-4_Evl7hq_pad-1"/><circle cx="0" cy="0" r="550.5" id="AyfipWqQIYO-4_Evl7hq_pad-2"/><circle cx="0" cy="0" r="600" id="AyfipWqQIYO-4_Evl7hq_pad-3"/><circle cx="0" cy="0" r="800" id="AyfipWqQIYO-4_Evl7hq_pad-4"/><circle cx="0" cy="0" r="1500" id="DLw79n8q6JtlzOEb8NZ5_pad-1"/><g id="iumri1lnbtsTFuejHTB9_bottom_copper"><path d="M 43214.97 51775.99 46950.6 48040.36 46990 32893 M 43088.56 31074.36 45212 32766 61026.04 32893 61026.04 38100 M 18242.28 63500 16129 63500 11303 58674 11303 23495 17145 17653 71120 17653 71120 28194 76962 28158.44 M 61026.04 38100 61026.04 52776.12 57404 56515 57277 60579 M 47117 60579 47117 65913 69596 65913 69596 60071 71028.56 58638.44 76962 58638.44 M 52197 60579 52197 63246 64770 63246 64770 56896 68036.43 53629.55 76962 53629.55 M 15621 44302.68 37211 44302.68 37211 56896 47879 56896 53594 51181 53594 38166.04 53527.95 38100 M 18114.11 36703.07 18114.11 39624 37211 39624 37211 21463 66167 21463 66167 38481 76870.56 38481 76962 38389.55 M 76962 43398.44 61009.07 43398.44 M 42037 60579 42037 56896 M 15747.87 56519.95 15620.87 56392.95 15620.87 28579.95 M 28114.09 36703.07 28114.09 28573.39 M 20701 28569.92 31587.43 28575 M 20828.12 56510.04 28212.03 56510.04 M 18241.11 63500.05 18288.12 63453.06 18288.12 56510.04 M 18114.11 36703.05 18161.12 36656.06 18161.12 28570.04 M 76962 43398.44 82042 43398.44 82042 22987 77124.56 22987 76962 23149.55 M 31714.43 49276 29331.91 49276 28242.25 50370.73 28242.25 63500" fill="none" stroke-width="1500"/><use xlink:href="#Zjyn7x68kcANdfowbl2c_pad-11" x="47117" y="60579"/><use xlink:href="#Zjyn7x68kcANdfowbl2c_pad-11" x="42037" y="60579"/><use xlink:href="#Zjyn7x68kcANdfowbl2c_pad-11" x="52197" y="60579"/><use xlink:href="#Zjyn7x68kcANdfowbl2c_pad-11" x="57277" y="60579"/><use xlink:href="#Zjyn7x68kcANdfowbl2c_pad-12" x="76962" y="53629.55"/><use xlink:href="#Zjyn7x68kcANdfowbl2c_pad-12" x="76962" y="58638.44"/><use xlink:href="#Zjyn7x68kcANdfowbl2c_pad-12" x="76962" y="23149.55"/><use xlink:href="#Zjyn7x68kcANdfowbl2c_pad-12" x="76962" y="28158.44"/><use xlink:href="#Zjyn7x68kcANdfowbl2c_pad-12" x="76962" y="38389.55"/><use xlink:href="#Zjyn7x68kcANdfowbl2c_pad-12" x="76962" y="43398.44"/><use xlink:href="#Zjyn7x68kcANdfowbl2c_pad-13" x="43215.05" y="51776.12"/><use xlink:href="#Zjyn7x68kcANdfowbl2c_pad-13" x="43215.05" y="46776.13"/><use xlink:href="#Zjyn7x68kcANdfowbl2c_pad-13" x="31714.94" y="49276"/><use xlink:href="#Zjyn7x68kcANdfowbl2c_pad-13" x="43088.05" y="31075.12"/><use xlink:href="#Zjyn7x68kcANdfowbl2c_pad-13" x="43088.05" y="26075.13"/><use xlink:href="#Zjyn7x68kcANdfowbl2c_pad-13" x="31587.94" y="28575"/><use xlink:href="#Zjyn7x68kcANdfowbl2c_pad-12" x="28240.99" y="63500"/><use xlink:href="#Zjyn7x68kcANdfowbl2c_pad-12" x="18241.01" y="63500"/><use xlink:href="#Zjyn7x68kcANdfowbl2c_pad-12" x="28113.99" y="36703"/><use xlink:href="#Zjyn7x68kcANdfowbl2c_pad-12" x="18114.01" y="36703"/><use xlink:href="#Zjyn7x68kcANdfowbl2c_pad-14" x="61027.05" y="38100"/><use xlink:href="#Zjyn7x68kcANdfowbl2c_pad-14" x="53527.19" y="38100"/><use xlink:href="#Zjyn7x68kcANdfowbl2c_pad-15" x="18288.25" y="56509.92"/><use xlink:href="#Zjyn7x68kcANdfowbl2c_pad-15" x="15748" y="56519.82"/><use xlink:href="#Zjyn7x68kcANdfowbl2c_pad-16" x="20828.25" y="56509.92"/><use xlink:href="#Zjyn7x68kcANdfowbl2c_pad-15" x="18161.25" y="28569.92"/><use xlink:href="#Zjyn7x68kcANdfowbl2c_pad-15" x="15621" y="28579.82"/><use xlink:href="#Zjyn7x68kcANdfowbl2c_pad-16" x="20701.25" y="28569.92"/></g><g id="iumri1lnbtsTFuejHTB9_bottom_soldermask" transform="scale(25.4,25.4)"><use xlink:href="#fRTdxRXhKVDU5b3Du_g8_pad-10" x="47117" y="60579"/><use xlink:href="#fRTdxRXhKVDU5b3Du_g8_pad-10" x="42037" y="60579"/><use xlink:href="#fRTdxRXhKVDU5b3Du_g8_pad-10" x="52197" y="60579"/><use xlink:href="#fRTdxRXhKVDU5b3Du_g8_pad-10" x="57277" y="60579"/><use xlink:href="#fRTdxRXhKVDU5b3Du_g8_pad-11" x="76962" y="53629.55"/><use xlink:href="#fRTdxRXhKVDU5b3Du_g8_pad-11" x="76962" y="58638.44"/><use xlink:href="#fRTdxRXhKVDU5b3Du_g8_pad-11" x="76962" y="23149.55"/><use xlink:href="#fRTdxRXhKVDU5b3Du_g8_pad-11" x="76962" y="28158.44"/><use xlink:href="#fRTdxRXhKVDU5b3Du_g8_pad-11" x="76962" y="38389.55"/><use xlink:href="#fRTdxRXhKVDU5b3Du_g8_pad-11" x="76962" y="43398.44"/><use xlink:href="#fRTdxRXhKVDU5b3Du_g8_pad-12" x="43215" y="51776.02"/><use xlink:href="#fRTdxRXhKVDU5b3Du_g8_pad-12" x="43215" y="46776"/><use xlink:href="#fRTdxRXhKVDU5b3Du_g8_pad-12" x="31714.99" y="49276.02"/><use xlink:href="#fRTdxRXhKVDU5b3Du_g8_pad-12" x="43088" y="31075.02"/><use xlink:href="#fRTdxRXhKVDU5b3Du_g8_pad-12" x="43088" y="26075"/><use xlink:href="#fRTdxRXhKVDU5b3Du_g8_pad-12" x="31587.99" y="28575.02"/><use xlink:href="#fRTdxRXhKVDU5b3Du_g8_pad-13" x="28240.99" y="63500"/><use xlink:href="#fRTdxRXhKVDU5b3Du_g8_pad-13" x="18241.01" y="63500"/><use xlink:href="#fRTdxRXhKVDU5b3Du_g8_pad-13" x="28113.99" y="36703"/><use xlink:href="#fRTdxRXhKVDU5b3Du_g8_pad-13" x="18114.01" y="36703"/><use xlink:href="#fRTdxRXhKVDU5b3Du_g8_pad-14" x="61027.05" y="38100"/><use xlink:href="#fRTdxRXhKVDU5b3Du_g8_pad-14" x="53527.19" y="38100"/><use xlink:href="#fRTdxRXhKVDU5b3Du_g8_pad-15" x="18288.25" y="56509.92"/><use xlink:href="#fRTdxRXhKVDU5b3Du_g8_pad-15" x="15748" y="56519.82"/><use xlink:href="#fRTdxRXhKVDU5b3Du_g8_pad-16" x="20828.12" y="56510.04"/><use xlink:href="#fRTdxRXhKVDU5b3Du_g8_pad-15" x="18161.25" y="28569.92"/><use xlink:href="#fRTdxRXhKVDU5b3Du_g8_pad-15" x="15621" y="28579.82"/><use xlink:href="#fRTdxRXhKVDU5b3Du_g8_pad-16" x="20701.12" y="28570.04"/></g><g id="iumri1lnbtsTFuejHTB9_bottom_drill1"><use xlink:href="#AyfipWqQIYO-4_Evl7hq_pad-1" x="28241" y="63500"/><use xlink:href="#AyfipWqQIYO-4_Evl7hq_pad-1" x="18241" y="63500"/><use xlink:href="#AyfipWqQIYO-4_Evl7hq_pad-1" x="28114" y="36703"/><use xlink:href="#AyfipWqQIYO-4_Evl7hq_pad-1" x="18114" y="36703"/><use xlink:href="#AyfipWqQIYO-4_Evl7hq_pad-2" x="43215" y="51776"/><use xlink:href="#AyfipWqQIYO-4_Evl7hq_pad-2" x="43215" y="46776"/><use xlink:href="#AyfipWqQIYO-4_Evl7hq_pad-2" x="31715" y="49276"/><use xlink:href="#AyfipWqQIYO-4_Evl7hq_pad-2" x="43088" y="31075"/><use xlink:href="#AyfipWqQIYO-4_Evl7hq_pad-2" x="43088" y="26075"/><use xlink:href="#AyfipWqQIYO-4_Evl7hq_pad-2" x="31588" y="28575"/><use xlink:href="#AyfipWqQIYO-4_Evl7hq_pad-3" x="76962" y="53630"/><use xlink:href="#AyfipWqQIYO-4_Evl7hq_pad-3" x="76962" y="58638"/><use xlink:href="#AyfipWqQIYO-4_Evl7hq_pad-3" x="76962" y="23150"/><use xlink:href="#AyfipWqQIYO-4_Evl7hq_pad-3" x="76962" y="28158"/><use xlink:href="#AyfipWqQIYO-4_Evl7hq_pad-3" x="76962" y="38390"/><use xlink:href="#AyfipWqQIYO-4_Evl7hq_pad-3" x="76962" y="43398"/><use xlink:href="#AyfipWqQIYO-4_Evl7hq_pad-3" x="61027" y="38100"/><use xlink:href="#AyfipWqQIYO-4_Evl7hq_pad-3" x="53527" y="38100"/><use xlink:href="#AyfipWqQIYO-4_Evl7hq_pad-3" x="18288" y="56510"/><use xlink:href="#AyfipWqQIYO-4_Evl7hq_pad-3" x="15748" y="56520"/><use xlink:href="#AyfipWqQIYO-4_Evl7hq_pad-3" x="20828" y="56510"/><use xlink:href="#AyfipWqQIYO-4_Evl7hq_pad-3" x="18161" y="28570"/><use xlink:href="#AyfipWqQIYO-4_Evl7hq_pad-3" x="15621" y="28580"/><use xlink:href="#AyfipWqQIYO-4_Evl7hq_pad-3" x="20701" y="28570"/><use xlink:href="#AyfipWqQIYO-4_Evl7hq_pad-4" x="47117" y="60579"/><use xlink:href="#AyfipWqQIYO-4_Evl7hq_pad-4" x="42037" y="60579"/><use xlink:href="#AyfipWqQIYO-4_Evl7hq_pad-4" x="52197" y="60579"/><use xlink:href="#AyfipWqQIYO-4_Evl7hq_pad-4" x="57277" y="60579"/></g><g id="iumri1lnbtsTFuejHTB9_bottom_drill2"><use xlink:href="#DLw79n8q6JtlzOEb8NZ5_pad-1" x="10033" y="66040"/><use xlink:href="#DLw79n8q6JtlzOEb8NZ5_pad-1" x="10033" y="16637"/><use xlink:href="#DLw79n8q6JtlzOEb8NZ5_pad-1" x="86360" y="16637"/><use xlink:href="#DLw79n8q6JtlzOEb8NZ5_pad-1" x="86360" y="66040"/></g><clipPath id="iumri1lnbtsTFuejHTB9_bottom_outline"><path d="M 7747 68326 88746.83 68326 88746.83 14326.1 7747 14326.1 7747 68326" fill="none" stroke-width="254"/></clipPath><mask id="iumri1lnbtsTFuejHTB9_bottom_mech-mask"><g fill="#000" stroke="#000"><rect x="7747" y="14326.1" width="80999.83" height="53999.9" fill="#fff"/><use xlink:href="#iumri1lnbtsTFuejHTB9_bottom_drill1"/><use xlink:href="#iumri1lnbtsTFuejHTB9_bottom_drill2"/></g></mask><mask id="iumri1lnbtsTFuejHTB9_bottom_cf-mask"><g fill="#fff" stroke="#fff"><use xlink:href="#iumri1lnbtsTFuejHTB9_bottom_soldermask"/></g></mask><mask id="iumri1lnbtsTFuejHTB9_bottom_sm-mask"><g fill="#000" stroke="#000"><rect x="7747" y="14326.1" width="80999.83" height="53999.9" fill="#fff"/><use xlink:href="#iumri1lnbtsTFuejHTB9_bottom_soldermask"/></g></mask></defs><g transform="translate(0,82652.1) scale(1,-1)"><g mask="url(#iumri1lnbtsTFuejHTB9_bottom_mech-mask)" clip-path="url(#iumri1lnbtsTFuejHTB9_bottom_outline)" transform="translate(96493.83,0) scale(-1,1)"><rect x="7747" y="14326.1" width="80999.83" height="53999.9" fill="currentColor" class="iumri1lnbtsTFuejHTB9_fr4"/><use xlink:href="#iumri1lnbtsTFuejHTB9_bottom_copper" fill="currentColor" stroke="currentColor" class="iumri1lnbtsTFuejHTB9_cu"/><use xlink:href="#iumri1lnbtsTFuejHTB9_bottom_copper" fill="currentColor" stroke="currentColor" class="iumri1lnbtsTFuejHTB9_cf" mask="url(#iumri1lnbtsTFuejHTB9_bottom_cf-mask)"/><g mask="url(#iumri1lnbtsTFuejHTB9_bottom_sm-mask)"><rect x="7747" y="14326.1" width="80999.83" height="53999.9" fill="currentColor" class="iumri1lnbtsTFuejHTB9_sm"/></g></g></g></svg>