<svg version="1.1" xmlns="http://www.w3.org/2000/svg" xmlns:xlink="http://www.w3.org/1999/xlink" stroke-linecap="round" stroke-linejoin="round" stroke-width="0" fill-rule="evenodd" width="62.541mm" height="41.4005mm" viewBox="15021 22550 62541 41400.5" id="AyfipWqQIYO-4_Evl7hq"><defs><circle cx="0" cy="0" r="450.5" id="AyfipWqQIYO-4_Evl7hq_pad-1"/><circle cx="0" cy="0" r="550.5" id="AyfipWqQIYO-4_Evl7hq_pad-2"/><circle cx="0" cy="0" r="600" id="AyfipWqQIYO-4_Evl7hq_pad-3"/><circle cx="0" cy="0" r="800" id="AyfipWqQIYO-4_Evl7hq_pad-4"/></defs><g transform="translate(0,86500.5) scale(1,-1)" fill="currentColor" stroke="currentColor"><use xlink:href="#AyfipWqQIYO-4_Evl7hq_pad-1" x="28241" y="63500"/><use xlink:href="#AyfipWqQIYO-4_Evl7hq_pad-1" x="18241" y="63500"/><use xlink:href="#AyfipWqQIYO-4_Evl7hq_pad-1" x="28114" y="36703"/><use xlink:href="#AyfipWqQIYO-4_Evl7hq_pad-1" x="18114" y="36703"/><use xlink:href="#AyfipWqQIYO-4_Evl7hq_pad-2" x="43215" y="51776"/><use xlink:href="#AyfipWqQIYO-4_Evl7hq_pad-2" x="43215" y="46776"/><use xlink:href="#AyfipWqQIYO-4_Evl7hq_pad-2" x="31715" y="49276"/><use xlink:href="#AyfipWqQIYO-4_Evl7hq_pad-2" x="43088" y="31075"/><use xlink:href="#AyfipWqQIYO-4_Evl7hq_pad-2" x="43088" y="26075"/><use xlink:href="#AyfipWqQIYO-4_Evl7hq_pad-2" x="31588" y="28575"/><use xlink:href="#AyfipWqQIYO-4_Evl7hq_pad-3" x="76962" y="53630"/><use xlink:href="#AyfipWqQIYO-4_Evl7hq_pad-3" x="76962" y="58638"/><use xlink:href="#AyfipWqQIYO-4_Evl7hq_pad-3" x="76962" y="23150"/><use xlink:href="#AyfipWqQIYO-4_Evl7hq_pad-3" x="76962" y="28158"/><use xlink:href="#AyfipWqQIYO-4_Evl7hq_pad-3" x="76962" y="38390"/><use xlink:href="#AyfipWqQIYO-4_Evl7hq_pad-3" x="76962" y="43398"/><use xlink:href="#AyfipWqQIYO-4_Evl7hq_pad-3" x="61027" y="38100"/><use xlink:href="#AyfipWqQIYO-4_Evl7hq_pad-3" x="53527" y="38100"/><use xlink:href="#AyfipWqQIYO-4_Evl7hq_pad-3" x="18288" y="56510"/><use xlink:href="#AyfipWqQIYO-4_Evl7hq_pad-3" x="15748" y="56520"/><use xlink:href="#AyfipWqQIYO-4_Evl7hq_pad-3" x="20828" y="56510"/><use xlink:href="#AyfipWqQIYO-4_Evl7hq_pad-3" x="18161" y="28570"/><use xlink:href="#AyfipWqQIYO-4_Evl7hq_pad-3" x="15621" y="28580"/><use xlink:href="#AyfipWqQIYO-4_Evl7hq_pad-3" x="20701" y="28570"/><use xlink:href="#AyfipWqQIYO-4_Evl7hq_pad-4" x="47117" y="60579"/><use xlink:href="#AyfipWqQIYO-4_Evl7hq_pad-4" x="42037" y="60579"/><use xlink:href="#AyfipWqQIYO-4_Evl7hq_pad-4" x="52197" y="60579"/><use xlink:href="#AyfipWqQIYO-4_Evl7hq_pad-4" x="57277" y="60579"/></g></svg>