<svg version="1.1" xmlns="http://www.w3.org/2000/svg" xmlns:xlink="http://www.w3.org/1999/xlink" stroke-linecap="round" stroke-linejoin="round" stroke-width="0" fill-rule="evenodd" width="0" height="0" viewBox="0 0 0 0" id="vXYnCg87voR9zrNDI_vV"><defs><rect x="-1300.7975" y="-1050.798" width="2601.595" height="2101.596" rx="1050.798" ry="1050.798" id="vXYnCg87voR9zrNDI_vV_pad-10"/><circle cx="0" cy="0" r="1050.8" id="vXYnCg87voR9zrNDI_vV_pad-11"/><g id="vXYnCg87voR9zrNDI_vV_pad-12"><circle cx="1000" cy="1000" r="50.8"/><circle cx="1000" cy="0" r="50.8"/><circle cx="-1000" cy="-1000" r="50.8"/><circle cx="-1000" cy="0" r="50.8"/><polygon points="1050.8,1000 1050.8,NaN 949.2,NaN 949.2,1000"/><polygon points="1050.8,NaN -949.2,-1000 -1050.8,-1000 949.2,NaN"/><polygon points="-949.2,-1000 -949.2,NaN -1050.8,NaN -1050.8,-1000"/><polygon points="-949.2,NaN 1050.8,1000 949.2,1000 -1050.8,NaN"/><polygon points="NaN,NaN NaN,NaN NaN,NaN NaN,NaN"/></g><circle cx="0" cy="0" r="1101.6" id="vXYnCg87voR9zrNDI_vV_pad-13"/><circle cx="0" cy="0" r="1150.8" id="vXYnCg87voR9zrNDI_vV_pad-14"/><rect x="-950.7982" y="-1350.7974" width="1901.5964" height="2701.5948" rx="950.7982" ry="950.7982" id="vXYnCg87voR9zrNDI_vV_pad-15"/><g id="vXYnCg87voR9zrNDI_vV_pad-16"><circle cx="900" cy="0" r="50.8"/><circle cx="0" cy="0" r="50.8"/><circle cx="-900" cy="0" r="50.8"/><circle cx="0" cy="0" r="50.8"/><polygon points="950.8,NaN NaN,NaN NaN,NaN 849.2,NaN"/><polygon points="NaN,NaN -849.2,NaN -950.8,NaN NaN,NaN"/><polygon points="-849.2,NaN NaN,NaN NaN,NaN -950.8,NaN"/><polygon points="NaN,NaN 950.8,NaN 849.2,NaN NaN,NaN"/><polygon points="NaN,NaN NaN,NaN NaN,NaN NaN,NaN"/></g></defs><g transform="translate(0,0) scale(1,-1)" fill="currentColor" stroke="currentColor"><use xlink:href="#vXYnCg87voR9zrNDI_vV_pad-10" x="47117" y="60579"/><use xlink:href="#vXYnCg87voR9zrNDI_vV_pad-10" x="42037" y="60579"/><use xlink:href="#vXYnCg87voR9zrNDI_vV_pad-10" x="52197" y="60579"/><use xlink:href="#vXYnCg87voR9zrNDI_vV_pad-10" x="57277" y="60579"/><use xlink:href="#vXYnCg87voR9zrNDI_vV_pad-11" x="76962" y="53629.55"/><use xlink:href="#vXYnCg87voR9zrNDI_vV_pad-11" x="76962" y="58638.44"/><use xlink:href="#vXYnCg87voR9zrNDI_vV_pad-11" x="76962" y="23149.55"/><use xlink:href="#vXYnCg87voR9zrNDI_vV_pad-11" x="76962" y="28158.44"/><use xlink:href="#vXYnCg87voR9zrNDI_vV_pad-11" x="76962" y="38389.55"/><use xlink:href="#vXYnCg87voR9zrNDI_vV_pad-11" x="76962" y="43398.44"/><use xlink:href="#vXYnCg87voR9zrNDI_vV_pad-12" x="43215" y="51776.02"/><use xlink:href="#vXYnCg87voR9zrNDI_vV_pad-12" x="43215" y="46776"/><use xlink:href="#vXYnCg87voR9zrNDI_vV_pad-12" x="31714.99" y="49276.02"/><use xlink:href="#vXYnCg87voR9zrNDI_vV_pad-12" x="43088" y="31075.02"/><use xlink:href="#vXYnCg87voR9zrNDI_vV_pad-12" x="43088" y="26075"/><use xlink:href="#vXYnCg87voR9zrNDI_vV_pad-12" x="31587.99" y="28575.02"/><use xlink:href="#vXYnCg87voR9zrNDI_vV_pad-13" x="28240.99" y="63500"/><use xlink:href="#vXYnCg87voR9zrNDI_vV_pad-13" x="18241.01" y="63500"/><use xlink:href="#vXYnCg87voR9zrNDI_vV_pad-13" x="28113.99" y="36703"/><use xlink:href="#vXYnCg87voR9zrNDI_vV_pad-13" x="18114.01" y="36703"/><use xlink:href="#vXYnCg87voR9zrNDI_vV_pad-14" x="61027.05" y="38100"/><use xlink:href="#vXYnCg87voR9zrNDI_vV_pad-14" x="53527.19" y="38100"/><use xlink:href="#vXYnCg87voR9zrNDI_vV_pad-15" x="18288.25" y="56509.92"/><use xlink:href="#vXYnCg87voR9zrNDI_vV_pad-15" x="15748" y="56519.82"/><use xlink:href="#vXYnCg87voR9zrNDI_vV_pad-16" x="20828.12" y="56510.04"/><use xlink:href="#vXYnCg87voR9zrNDI_vV_pad-15" x="18161.25" y="28569.92"/><use xlink:href="#vXYnCg87voR9zrNDI_vV_pad-15" x="15621" y="28579.82"/><use xlink:href="#vXYnCg87voR9zrNDI_vV_pad-16" x="20701.12" y="28570.04"/></g></svg>