<svg version="1.1" xmlns="http://www.w3.org/2000/svg" xmlns:xlink="http://www.w3.org/1999/xlink" stroke-linecap="round" stroke-linejoin="round" stroke-width="0" fill-rule="evenodd" width="72.239mm" height="49.76mm" viewBox="10553 16903 72239 49760" id="Zjyn7x68kcANdfowbl2c"><defs><rect x="-1249.9975" y="-999.998" width="2499.995" height="1999.996" rx="999.998" ry="999.998" id="Zjyn7x68kcANdfowbl2c_pad-11"/><circle cx="0" cy="0" r="1000" id="Zjyn7x68kcANdfowbl2c_pad-12"/><rect x="-1000" y="-1000" width="2000" height="2000" id="Zjyn7x68kcANdfowbl2c_pad-13"/><circle cx="0" cy="0" r="1100" id="Zjyn7x68kcANdfowbl2c_pad-14"/><rect x="-899.9982" y="-1299.9974" width="1799.9964" height="2599.9948" rx="899.9982" ry="899.9982" id="Zjyn7x68kcANdfowbl2c_pad-15"/><rect x="-900" y="-1300" width="1800" height="2600" id="Zjyn7x68kcANdfowbl2c_pad-16"/></defs><g transform="translate(0,83566) scale(1,-1)" fill="currentColor" stroke="currentColor"><path d="M 43214.97 51775.99 46950.6 48040.36 46990 32893 M 43088.56 31074.36 45212 32766 61026.04 32893 61026.04 38100 M 18242.28 63500 16129 63500 11303 58674 11303 23495 17145 17653 71120 17653 71120 28194 76962 28158.44 M 61026.04 38100 61026.04 52776.12 57404 56515 57277 60579 M 47117 60579 47117 65913 69596 65913 69596 60071 71028.56 58638.44 76962 58638.44 M 52197 60579 52197 63246 64770 63246 64770 56896 68036.43 53629.55 76962 53629.55 M 15621 44302.68 37211 44302.68 37211 56896 47879 56896 53594 51181 53594 38166.04 53527.95 38100 M 18114.11 36703.07 18114.11 39624 37211 39624 37211 21463 66167 21463 66167 38481 76870.56 38481 76962 38389.55 M 76962 43398.44 61009.07 43398.44 M 42037 60579 42037 56896 M 15747.87 56519.95 15620.87 56392.95 15620.87 28579.95 M 28114.09 36703.07 28114.09 28573.39 M 20701 28569.92 31587.43 28575 M 20828.12 56510.04 28212.03 56510.04 M 18241.11 63500.05 18288.12 63453.06 18288.12 56510.04 M 18114.11 36703.05 18161.12 36656.06 18161.12 28570.04 M 76962 43398.44 82042 43398.44 82042 22987 77124.56 22987 76962 23149.55 M 31714.43 49276 29331.91 49276 28242.25 50370.73 28242.25 63500" fill="none" stroke-width="1500"/><use xlink:href="#Zjyn7x68kcANdfowbl2c_pad-11" x="47117" y="60579"/><use xlink:href="#Zjyn7x68kcANdfowbl2c_pad-11" x="42037" y="60579"/><use xlink:href="#Zjyn7x68kcANdfowbl2c_pad-11" x="52197" y="60579"/><use xlink:href="#Zjyn7x68kcANdfowbl2c_pad-11" x="57277" y="60579"/><use xlink:href="#Zjyn7x68kcANdfowbl2c_pad-12" x="76962" y="53629.55"/><use xlink:href="#Zjyn7x68kcANdfowbl2c_pad-12" x="76962" y="58638.44"/><use xlink:href="#Zjyn7x68kcANdfowbl2c_pad-12" x="76962" y="23149.55"/><use xlink:href="#Zjyn7x68kcANdfowbl2c_pad-12" x="76962" y="28158.44"/><use xlink:href="#Zjyn7x68kcANdfowbl2c_pad-12" x="76962" y="38389.55"/><use xlink:href="#Zjyn7x68kcANdfowbl2c_pad-12" x="76962" y="43398.44"/><use xlink:href="#Zjyn7x68kcANdfowbl2c_pad-13" x="43215.05" y="51776.12"/><use xlink:href="#Zjyn7x68kcANdfowbl2c_pad-13" x="43215.05" y="46776.13"/><use xlink:href="#Zjyn7x68kcANdfowbl2c_pad-13" x="31714.94" y="49276"/><use xlink:href="#Zjyn7x68kcANdfowbl2c_pad-13" x="43088.05" y="31075.12"/><use xlink:href="#Zjyn7x68kcANdfowbl2c_pad-13" x="43088.05" y="26075.13"/><use xlink:href="#Zjyn7x68kcANdfowbl2c_pad-13" x="31587.94" y="28575"/><use xlink:href="#Zjyn7x68kcANdfowbl2c_pad-12" x="28240.99" y="63500"/><use xlink:href="#Zjyn7x68kcANdfowbl2c_pad-12" x="18241.01" y="63500"/><use xlink:href="#Zjyn7x68kcANdfowbl2c_pad-12" x="28113.99" y="36703"/><use xlink:href="#Zjyn7x68kcANdfowbl2c_pad-12" x="18114.01" y="36703"/><use xlink:href="#Zjyn7x68kcANdfowbl2c_pad-14" x="61027.05" y="38100"/><use xlink:href="#Zjyn7x68kcANdfowbl2c_pad-14" x="53527.19" y="38100"/><use xlink:href="#Zjyn7x68kcANdfowbl2c_pad-15" x="18288.25" y="56509.92"/><use xlink:href="#Zjyn7x68kcANdfowbl2c_pad-15" x="15748" y="56519.82"/><use xlink:href="#Zjyn7x68kcANdfowbl2c_pad-16" x="20828.25" y="56509.92"/><use xlink:href="#Zjyn7x68kcANdfowbl2c_pad-15" x="18161.25" y="28569.92"/><use xlink:href="#Zjyn7x68kcANdfowbl2c_pad-15" x="15621" y="28579.82"/><use xlink:href="#Zjyn7x68kcANdfowbl2c_pad-16" x="20701.25" y="28569.92"/></g></svg>