<svg version="1.1" xmlns="http://www.w3.org/2000/svg" xmlns:xlink="http://www.w3.org/1999/xlink" stroke-linecap="round" stroke-linejoin="round" stroke-width="0" fill-rule="evenodd" width="71.2478382mm" height="43.0116mm" viewBox="14721.0018 21488.4 71247.8382 43011.6" id="mA2_Zxs-brq-yWVh97KI"><defs><rect x="-1249.9975" y="-999.998" width="2499.995" height="1999.996" rx="999.998" ry="999.998" id="mA2_Zxs-brq-yWVh97KI_pad-11"/><circle cx="0" cy="0" r="1000" id="mA2_Zxs-brq-yWVh97KI_pad-12"/><rect x="-1000" y="-1000" width="2000" height="2000" id="mA2_Zxs-brq-yWVh97KI_pad-13"/><circle cx="0" cy="0" r="1100" id="mA2_Zxs-brq-yWVh97KI_pad-14"/><rect x="-899.9982" y="-1299.9974" width="1799.9964" height="2599.9948" rx="899.9982" ry="899.9982" id="mA2_Zxs-brq-yWVh97KI_pad-15"/><rect x="-900" y="-1300" width="1800" height="2600" id="mA2_Zxs-brq-yWVh97KI_pad-16"/></defs><g transform="translate(0,85988.4) scale(1,-1)" fill="currentColor" stroke="currentColor"><path d="M 83929.22 55222.13 85867.24 54483 M 83929.22 55222.13 85867.24 55961.28 M 85222.08 54759.86 85222.08 55684.42 M 84391.5 57955.18 84206.08 57863.73 84020.65 57678.31 83929.22 57492.89 83929.22 57124.6 84020.65 56939.18 84206.08 56756.29 84391.5 56662.31 84668.36 56570.87 85128.09 56570.87 85407.5 56662.31 85590.38 56756.29 85775.79 56939.18 85867.24 57124.6 85867.24 57492.89 85775.79 57678.31 85590.38 57863.73 85407.5 57955.18 M 83929.22 38445.44 83929.22 37523.42 84759.79 37429.44 84668.36 37523.42 84574.38 37800.28 84574.38 38077.13 84668.36 38354 84851.24 38539.42 85128.09 38630.86 85313.52 38630.86 85590.38 38539.42 85775.79 38354 85867.24 38077.13 85867.24 37800.28 85775.79 37523.42 85684.36 37429.44 85498.93 37338 M 83929.22 39240.45 85867.24 39979.6 M 83929.22 40718.73 85867.24 39979.6 M 84391.5 44135.04 84206.08 44043.6 84020.65 43858.18 83929.22 43675.29 83929.22 43304.45 84020.65 43119.04 84206.08 42936.15 84391.5 42842.18 84668.36 42750.73 85128.09 42750.73 85407.5 42842.18 85590.38 42936.15 85775.79 43119.04 85867.24 43304.45 85867.24 43675.29 85775.79 43858.18 85590.38 44043.6 85407.5 44135.04 85128.09 44135.04 M 85128.09 43675.29 85128.09 44135.04 M 84264.5 22974.29 84079.08 22882.86 83893.65 22697.44 83802.22 22514.55 83802.22 22143.71 83893.65 21958.29 84079.08 21775.42 84264.5 21681.44 84541.36 21590 85001.09 21590 85280.5 21681.44 85463.38 21775.42 85648.79 21958.29 85740.24 22143.71 85740.24 22514.55 85648.79 22697.44 85463.38 22882.86 85280.5 22974.29 85001.09 22974.29 M 85001.09 22514.55 85001.09 22974.29 M 84170.52 25006.29 84079.08 25191.71 83802.22 25468.57 85740.24 25468.57 M 84264.5 26172.15 84170.52 26172.15 83985.09 26263.6 83893.65 26355.04 83802.22 26540.45 83802.22 26911.29 83893.65 27094.18 83985.09 27188.15 84170.52 27279.6 84355.93 27279.6 84541.36 27188.15 84818.22 27002.73 85740.24 26078.18 85740.24 27371.04 M 83802.22 27980.63 85740.24 28719.78 M 83802.22 29458.92 85740.24 28719.78" fill="none" stroke-width="203.2"/><use xlink:href="#mA2_Zxs-brq-yWVh97KI_pad-11" x="47117" y="60579"/><use xlink:href="#mA2_Zxs-brq-yWVh97KI_pad-11" x="42037" y="60579"/><use xlink:href="#mA2_Zxs-brq-yWVh97KI_pad-11" x="52197" y="60579"/><use xlink:href="#mA2_Zxs-brq-yWVh97KI_pad-11" x="57277" y="60579"/><use xlink:href="#mA2_Zxs-brq-yWVh97KI_pad-12" x="76962" y="53629.55"/><use xlink:href="#mA2_Zxs-brq-yWVh97KI_pad-12" x="76962" y="58638.44"/><use xlink:href="#mA2_Zxs-brq-yWVh97KI_pad-12" x="76962" y="23149.55"/><use xlink:href="#mA2_Zxs-brq-yWVh97KI_pad-12" x="76962" y="28158.44"/><use xlink:href="#mA2_Zxs-brq-yWVh97KI_pad-12" x="76962" y="38389.55"/><use xlink:href="#mA2_Zxs-brq-yWVh97KI_pad-12" x="76962" y="43398.44"/><use xlink:href="#mA2_Zxs-brq-yWVh97KI_pad-13" x="43215.05" y="51776.12"/><use xlink:href="#mA2_Zxs-brq-yWVh97KI_pad-13" x="43215.05" y="46776.13"/><use xlink:href="#mA2_Zxs-brq-yWVh97KI_pad-13" x="31714.94" y="49276"/><use xlink:href="#mA2_Zxs-brq-yWVh97KI_pad-13" x="43088.05" y="31075.12"/><use xlink:href="#mA2_Zxs-brq-yWVh97KI_pad-13" x="43088.05" y="26075.13"/><use xlink:href="#mA2_Zxs-brq-yWVh97KI_pad-13" x="31587.94" y="28575"/><use xlink:href="#mA2_Zxs-brq-yWVh97KI_pad-12" x="28240.99" y="63500"/><use xlink:href="#mA2_Zxs-brq-yWVh97KI_pad-12" x="18241.01" y="63500"/><use xlink:href="#mA2_Zxs-brq-yWVh97KI_pad-12" x="28113.99" y="36703"/><use xlink:href="#mA2_Zxs-brq-yWVh97KI_pad-12" x="18114.01" y="36703"/><use xlink:href="#mA2_Zxs-brq-yWVh97KI_pad-14" x="61027.05" y="38100"/><use xlink:href="#mA2_Zxs-brq-yWVh97KI_pad-14" x="53527.19" y="38100"/><use xlink:href="#mA2_Zxs-brq-yWVh97KI_pad-15" x="18288.25" y="56509.92"/><use xlink:href="#mA2_Zxs-brq-yWVh97KI_pad-15" x="15748" y="56519.82"/><use xlink:href="#mA2_Zxs-brq-yWVh97KI_pad-16" x="20828.25" y="56509.92"/><use xlink:href="#mA2_Zxs-brq-yWVh97KI_pad-15" x="18161.25" y="28569.92"/><use xlink:href="#mA2_Zxs-brq-yWVh97KI_pad-15" x="15621" y="28579.82"/><use xlink:href="#mA2_Zxs-brq-yWVh97KI_pad-16" x="20701.25" y="28569.92"/></g></svg>