<svg version="1.1" xmlns="http://www.w3.org/2000/svg" xmlns:xlink="http://www.w3.org/1999/xlink" stroke-linecap="round" stroke-linejoin="round" stroke-width="0" fill-rule="evenodd" clip-rule="evenodd" id="iumri1lnbtsTFuejHTB9_top" viewBox="7747 14326.1 80999.83 53999.9" width="80.99983mm" height="53.999900000000004mm" class="w-100 h-100"><defs><style>.iumri1lnbtsTFuejHTB9_fr4 {color: #666666;}
.iumri1lnbtsTFuejHTB9_cu {color: #cccccc;}
.iumri1lnbtsTFuejHTB9_cf {color: #cc9933;}
.iumri1lnbtsTFuejHTB9_sm {color: #004200; opacity: 0.75;}
.iumri1lnbtsTFuejHTB9_ss {color: #ffffff;}
.iumri1lnbtsTFuejHTB9_sp {color: #999999;}
.iumri1lnbtsTFuejHTB9_out {color: #000000;}</style><rect x="-1249.9975" y="-999.998" width="2499.995" height="1999.996" rx="999.998" ry="999.998" id="mA2_Zxs-brq-yWVh97KI_pad-11"/><circle cx="0" cy="0" r="1000" id="mA2_Zxs-brq-yWVh97KI_pad-12"/><rect x="-1000" y="-1000" width="2000" height="2000" id="mA2_Zxs-brq-yWVh97KI_pad-13"/><circle cx="0" cy="0" r="1100" id="mA2_Zxs-brq-yWVh97KI_pad-14"/><rect x="-899.9982" y="-1299.9974" width="1799.9964" height="2599.9948" rx="899.9982" ry="899.9982" id="mA2_Zxs-brq-yWVh97KI_pad-15"/><rect x="-900" y="-1300" width="1800" height="2600" id="mA2_Zxs-brq-yWVh97KI_pad-16"/><rect x="-1300.7975" y="-1050.798" width="2601.595" height="2101.596" rx="1050.798" ry="1050.798" id="vXYnCg87voR9zrNDI_vV_pad-10"/><circle cx="0" cy="0" r="1050.8" id="vXYnCg87voR9zrNDI_vV_pad-11"/><g id="vXYnCg87voR9zrNDI_vV_pad-12"><circle cx="1000" cy="1000" r="50.8"/><circle cx="1000" cy="0" r="50.8"/><circle cx="-1000" cy="-1000" r="50.8"/><circle cx="-1000" cy="0" r="50.8"/><polygon points="1050.8,1000 1050.8,NaN 949.2,NaN 949.2,1000"/><polygon points="1050.8,NaN -949.2,-1000 -1050.8,-1000 949.2,NaN"/><polygon points="-949.2,-1000 -949.2,NaN -1050.8,NaN -1050.8,-1000"/><polygon points="-949.2,NaN 1050.8,1000 949.2,1000 -1050.8,NaN"/><polygon points="NaN,NaN NaN,NaN NaN,NaN NaN,NaN"/></g><circle cx="0" cy="0" r="1101.6" id="vXYnCg87voR9zrNDI_vV_pad-13"/><circle cx="0" cy="0" r="1150.8" id="vXYnCg87voR9zrNDI_vV_pad-14"/><rect x="-950.7982" y="-1350.7974" width="1901.5964" height="2701.5948" rx="950.7982" ry="950.7982" id="vXYnCg87voR9zrNDI_vV_pad-15"/><g id="vXYnCg87voR9zrNDI_vV_pad-16"><circle cx="900" cy="0" r="50.8"/><circle cx="0" cy="0" r="50.8"/><circle cx="-900" cy="0" r="50.8"/><circle cx="0" cy="0" r="50.8"/><polygon points="950.8,NaN NaN,NaN NaN,NaN 849.2,NaN"/><polygon points="NaN,NaN -849.2,NaN -950.8,NaN NaN,NaN"/><polygon points="-849.2,NaN NaN,NaN NaN,NaN -950.8,NaN"/><polygon points="NaN,NaN 950.8,NaN 849.2,NaN NaN,NaN"/><polygon points="NaN,NaN NaN,NaN NaN,NaN NaN,NaN"/></g><circle cx="0" cy="0" r="450.5" id="AyfipWqQIYO-4_Evl7hq_pad-1"/><circle cx="0" cy="0" r="550.5" id="AyfipWqQIYO-4_Evl7hq_pad-2"/><circle cx="0" cy="0" r="600" id="AyfipWqQIYO-4_Evl7hq_pad-3"/><circle cx="0" cy="0" r="800" id="AyfipWqQIYO-4_Evl7hq_pad-4"/><circle cx="0" cy="0" r="1500" id="DLw79n8q6JtlzOEb8NZ5_pad-1"/><g id="iumri1lnbtsTFuejHTB9_top_silkscreen"><path d="M 62621.15 61468 61531.5 61468 M 62621.15 61468 62621.15 61104.78 62570.36 60947.29 62466.22 60845.7 62362.08 60792.36 62204.59 60741.55 61945.52 60741.55 61790.58 60792.36 61686.43 60845.7 61582.29 60947.29 61531.5 61104.78 61531.5 61468 M 62412.88 60398.65 62466.22 60294.52 62621.15 60137.04 61531.5 60137.04 M 71287.63 55915.55 72377.29 55915.55 M 71287.63 55915.55 71287.63 56382.92 71338.43 56537.86 71391.77 56591.2 71495.91 56642 71650.86 56642 71755 56591.2 71805.79 56537.86 71859.13 56382.92 71859.13 55915.55 M 71495.91 56984.89 71442.58 57089.04 71287.63 57246.52 72377.29 57246.52 M 71287.63 25435.55 72377.29 25435.55 M 71287.63 25435.55 71287.63 25902.92 71338.43 26057.86 71391.77 26111.2 71495.91 26162 71650.86 26162 71755 26111.2 71805.79 26057.86 71859.13 25902.92 71859.13 25435.55 M 71546.72 26558.23 71495.91 26558.23 71391.77 26609.04 71338.43 26662.37 71287.63 26766.52 71287.63 26972.26 71338.43 27076.39 71391.77 27129.73 71495.91 27180.54 71600.06 27180.54 71704.2 27129.73 71859.13 27025.6 72377.29 26504.89 72377.29 27233.87 M 71287.63 40675.55 72377.29 40675.55 M 71287.63 40675.55 71287.63 41142.92 71338.43 41297.86 71391.77 41351.2 71495.91 41402 71650.86 41402 71755 41351.2 71805.79 41297.86 71859.13 41142.92 71859.13 40675.55 M 71287.63 41849.04 71287.63 42420.54 71704.2 42110.65 71704.2 42265.6 71755 42369.73 71805.79 42420.54 71963.27 42473.87 72067.41 42473.87 72222.36 42420.54 72326.5 42316.39 72377.29 42161.45 72377.29 42006.52 72326.5 41849.04 72275.7 41798.23 72171.56 41744.89 M 45624.16 49396.01 44534.5 49396.01 M 45624.16 49396.01 45624.16 48928.65 45573.36 48773.71 45520.02 48720.37 45415.88 48669.57 45260.94 48669.57 45156.8 48720.37 45106 48773.71 45052.66 48928.65 45052.66 49396.01 M 45624.16 47805.97 44897.72 48326.67 44897.72 47546.89 M 45624.16 47805.97 44534.5 47805.97 M 45497.16 28695.01 44407.5 28695.01 M 45497.16 28695.01 45497.16 28227.65 45446.36 28072.71 45393.02 28019.37 45288.88 27968.57 45133.94 27968.57 45029.8 28019.37 44979 28072.71 44925.66 28227.65 44925.66 28695.01 M 45497.16 27000.83 45497.16 27521.53 45029.8 27572.33 45080.6 27521.53 45133.94 27364.05 45133.94 27209.11 45080.6 27054.17 44979 26950.03 44821.52 26896.69 44717.38 26896.69 44562.44 26950.03 44458.3 27054.17 44407.5 27209.11 44407.5 27364.05 44458.3 27521.53 44509.1 27572.33 44613.24 27625.67 M 23379.02 60722.84 23379.02 61812.5 M 23379.02 60722.84 22911.66 60722.84 22756.72 60773.64 22703.38 60826.98 22652.58 60931.12 22652.58 61035.26 22703.38 61139.4 22756.72 61190.2 22911.66 61241 23379.02 61241 M 23015.8 61241 22652.58 61812.5 M 22205.54 60722.84 21634.04 60722.84 21943.92 61139.4 21788.98 61139.4 21684.84 61190.2 21634.04 61241 21580.7 61398.48 21580.7 61502.62 21634.04 61657.56 21738.18 61761.7 21893.12 61812.5 22048.06 61812.5 22205.54 61761.7 22256.34 61710.9 22309.68 61606.76 M 23252.02 33925.84 23252.02 35015.5 M 23252.02 33925.84 22784.66 33925.84 22629.72 33976.64 22576.38 34029.98 22525.58 34134.12 22525.58 34238.26 22576.38 34342.4 22629.72 34393.2 22784.66 34444 23252.02 34444 M 22888.8 34444 22525.58 35015.5 M 21661.98 33925.84 22182.68 34652.28 21402.9 34652.28 M 21661.98 33925.84 21661.98 35015.5 M 57041.16 47382.43 57041.16 46602.64 57091.96 46447.7 57196.1 46343.56 57353.58 46292.77 57457.72 46292.77 57612.66 46343.56 57716.8 46447.7 57767.6 46602.64 57767.6 47382.43 M 58110.5 47174.14 58214.64 47227.48 58372.12 47382.43 58372.12 46292.77 M 18161 18531.84 18161 19311.62 18110.2 19466.55 18006.05 19570.7 17848.57 19621.5 17744.44 19621.5 17589.5 19570.7 17485.36 19466.55 17434.55 19311.62 17434.55 18531.84 M 17038.31 18790.92 17038.31 18740.12 16987.52 18635.97 16934.18 18582.63 16830.04 18531.84 16624.29 18531.84 16520.15 18582.63 16466.81 18635.97 16416.02 18740.12 16416.02 18844.26 16466.81 18948.39 16570.95 19103.34 17091.65 19621.5 16362.68 19621.5 M 18288 46471.84 18288 47251.62 18237.2 47406.55 18133.05 47510.7 17975.57 47561.5 17871.44 47561.5 17716.5 47510.7 17612.36 47406.55 17561.55 47251.62 17561.55 46471.84 M 17114.52 46471.84 16543.02 46471.84 16852.89 46888.39 16697.95 46888.39 16593.81 46939.2 16543.02 46990 16489.68 47147.47 16489.68 47251.62 16543.02 47406.55 16647.15 47510.7 16802.1 47561.5 16957.04 47561.5 17114.52 47510.7 17165.31 47459.89 17218.65 47355.76 M 18415.12 51546.88 18415.12 52326.66 18364.32 52481.6 18260.18 52585.74 18102.7 52636.54 17998.56 52636.54 17843.62 52585.74 17739.48 52481.6 17688.68 52326.66 17688.68 51546.88 M 16825.08 51546.88 17345.78 52273.32 16566 52273.32 M 16825.08 51546.88 16825.08 52636.54 M 18288.12 23606.88 18288.12 24386.66 18237.32 24541.6 18133.18 24645.74 17975.7 24696.54 17871.56 24696.54 17716.62 24645.74 17612.48 24541.6 17561.68 24386.66 17561.68 23606.88 M 16593.94 23606.88 17114.64 23606.88 17165.44 24074.24 17114.64 24023.44 16957.16 23970.1 16802.22 23970.1 16647.28 24023.44 16543.14 24125.04 16489.8 24282.52 16489.8 24386.66 16543.14 24541.6 16647.28 24645.74 16802.22 24696.54 16957.16 24696.54 17114.64 24645.74 17165.44 24594.94 17218.78 24490.8" fill="none" stroke-width="152.4"/><path d="M 62484 44196 62484 32004 62675.51 32174.18 62861.44 32350.45 63041.27 32532.82 63215.52 32720.28 63383.66 32913.82 63545.72 33111.94 63701.16 33315.65 63850.52 33523.93 63992.76 33737.29 64061.34 33844.99 64192.91 34064.95 64317.88 34288.47 64435.73 34516.06 64492.12 34630.86 64598.8 34864.04 64697.86 35100.26 64789.81 35339.52 64873.63 35581.33 64949.83 35825.68 65018.41 36072.57 65078.86 36321.49 65131.69 36572.44 65176.4 36824.41 65212.97 37077.9 65241.42 37332.41 65261.74 37587.93 65273.93 37843.96 65278 38100 65273.93 38356.03 65261.74 38612.06 65241.42 38867.58 65212.97 39122.09 65176.4 39375.58 65131.69 39627.55 65078.86 39878.5 65018.41 40127.42 64949.83 40374.31 64873.63 40618.66 64789.81 40860.47 64697.86 41099.74 64598.8 41335.96 64492.12 41569.13 64377.82 41798.24 64256.41 42023.79 64127.88 42245.28 64061.34 42355 63922.14 42569.89 63776.86 42780.71 63624.46 42986.45 63465.45 43187.62 63300.35 43383.7 63129.16 43574.2 62951.86 43759.12 62768.98 43938.44 62580.52 44111.67"/><path d="M 21911.05 24967.69 21911.05 19967.95 22911.3 19967.95 22911.3 24967.69"/><path d="M 19512.78 24967.69 19512.78 19967.44 20512.53 19967.44 20512.53 24967.69"/><path d="M 15209.01 24966.67 15209.01 19966.43 16209.26 19966.43 16209.26 24966.67"/><path d="M 12810.74 24966.16 12810.74 19966.43 13810.48 19966.43 13810.48 24966.16"/><path d="M 11410.69 25966.42 11410.69 24966.16 24410.41 24966.16 24410.41 25966.42"/><path d="M 10410.44 29966.41 10410.44 19966.43 11410.69 19966.43 11410.69 29966.41"/><path d="M 24410.41 29966.41 24410.41 19966.43 25410.66 19966.43 25410.66 29966.41"/><path d="M 22038.05 52907.69 22038.05 47907.95 23038.3 47907.95 23038.3 52907.69"/><path d="M 19639.78 52907.69 19639.78 47907.44 20639.53 47907.44 20639.53 52907.69"/><path d="M 15336.01 52906.67 15336.01 47906.43 16336.26 47906.43 16336.26 52906.67"/><path d="M 12937.74 52906.16 12937.74 47906.43 13937.48 47906.43 13937.48 52906.16"/><path d="M 11537.69 53906.42 11537.69 52906.16 24537.41 52906.16 24537.41 53906.42"/><path d="M 10537.44 57906.41 10537.44 47906.43 11537.69 47906.43 11537.69 57906.41"/><path d="M 24537.41 57906.41 24537.41 47906.43 25537.66 47906.43 25537.66 57906.41"/><path d="M 38856.99 63248.99 38856.99 59279" fill="none" stroke-width="254"/><path d="M 56696.99 62378.99 57696.98 62378.99 M 41456.99 62378.99 42456.98 62378.99 M 41956.99 62878.99 41956.99 61878.99" fill="none" stroke-width="203.2"/><path d="M 38456.99 59179 38456.99 63248.99 60857 63248.99 60857 59179 38456.99 59179 M 72962.77 50889.66 72962.77 61389.51 M 72962.77 50899.31 81062.83 50899.31 M 72962.77 61399.16 81062.83 61399.16 M 74402.69 50889.66 74402.69 61389.51 M 81122.77 50899.31 81122.77 61399.16 M 73040.74 57609.48 73580.75 57609.48 73580.75 59139.32 73040.74 59139.32 M 73010.77 52791.36 73550.77 52791.36 73550.77 54321.2 73010.77 54321.2 M 80672.68 50889.66 80672.68 61389.51 M 80102.7 50889.66 80102.7 61389.51 M 72962.77 20409.66 72962.77 30909.51 M 72962.77 20419.31 81062.83 20419.31 M 72962.77 30919.16 81062.83 30919.16 M 74402.69 20409.66 74402.69 30909.51 M 81122.77 20419.31 81122.77 30919.16 M 73040.74 27129.48 73580.75 27129.48 73580.75 28659.32 73040.74 28659.32 M 73010.77 22311.36 73550.77 22311.36 73550.77 23841.2 73010.77 23841.2 M 80672.68 20409.66 80672.68 30909.51 M 80102.7 20409.66 80102.7 30909.51 M 72962.77 35649.66 72962.77 46149.51 M 72962.77 35659.31 81062.83 35659.31 M 72962.77 46159.16 81062.83 46159.16 M 74402.69 35649.66 74402.69 46149.51 M 81122.77 35659.31 81122.77 46159.16 M 73040.74 42369.48 73580.75 42369.48 73580.75 43899.32 73040.74 43899.32 M 73010.77 37551.36 73550.77 37551.36 73550.77 39081.2 73010.77 39081.2 M 80672.68 35649.66 80672.68 46149.51 M 80102.7 35649.66 80102.7 46149.51 M 43215 53776.01 41715 53776.01 M 43215 45544.86 43215 44776 41716.62 44805.32 M 43215 50544.88 43215 48007.14 M 43215 53776.01 43215 53007.15 M 43088 33075.01 41588 33075.01 M 43088 24843.86 43088 24075 41589.62 24104.32 M 43088 29843.88 43088 27306.14 M 43088 33075.01 43088 32306.15" fill="none" stroke-width="254"/><path d="M 22741 62199.9 22741 64739.9" fill="none" stroke-width="200"/><path d="M 21441.05 62399.87 21442.78 64599.92" fill="none" stroke-width="500"/><path d="M 25701.01 62229.97 23161.01 62229.97 20621.01 62229.97 20621.01 64769.97 25701.01 64769.97 25701.01 62229.97" fill="none" stroke-width="254"/><path d="M 23823.16 62229.97 23823.16 64769.97 M 24974.6 62229.97 24974.6 64769.97" fill="none" stroke-width="200"/><path d="M 20621.01 63499.97 19859.01 63499.97 M 25701.01 63499.97 26717.01 63499.97" fill="none" stroke-width="254"/><path d="M 22614 35402.9 22614 37942.9" fill="none" stroke-width="200"/><path d="M 21314.05 35602.87 21315.78 37802.92" fill="none" stroke-width="500"/><path d="M 25574.01 35432.97 23034.01 35432.97 20494.01 35432.97 20494.01 37972.97 25574.01 37972.97 25574.01 35432.97" fill="none" stroke-width="254"/><path d="M 23696.16 35432.97 23696.16 37972.97 M 24847.6 35432.97 24847.6 37972.97" fill="none" stroke-width="200"/><path d="M 20494.01 36702.97 19732.01 36702.97 M 25574.01 36702.97 26590.01 36702.97 M 50511.27 37566.52 50511.27 39293.72 M 51400.27 38404.72 49723.87 38404.72 M 23589.13 53420.97 12987.12 53420.97 12987.12 58219.06 23589.13 58219.06 23589.13 53426.05 23589.13 53420.97 M 12988.16 54020.13 23588.09 54020.13 M 23462.13 25480.97 12860.12 25480.97 12860.12 30279.06 23462.13 30279.06 23462.13 25486.05 23462.13 25480.97 M 12861.16 26080.13 23461.09 26080.13" fill="none" stroke-width="254"/><path d="M 52755.8 62278.26 A 299.9992033 299.9992033 0 0 1 52156.36 62278.26 M 51556.92 62278.26 A 299.9992033 299.9992033 0 0 1 52156.36 62278.26 M 46476.92 62278.26 A 299.9992033 299.9992033 0 0 1 47076.36 62278.26 M 47675.8 62278.26 A 299.9992033 299.9992033 0 0 1 47076.36 62278.26" fill="none" stroke-width="203.2"/><path d="M 31715 49276.03 A 6000.01 6000.01 0 0 1 41716.63 44805.32 M 31714.19 49276.03 A 6000.01 6000.01 0 0 0 41715.82 53746.73 M 31588 28575.03 A 6000.01 6000.01 0 0 1 41589.63 24104.32 M 31587.19 28575.03 A 6000.01 6000.01 0 0 0 41588.82 33045.73" fill="none" stroke-width="254"/><path d="M 21058.1 58845.04 A 200.0040322 200.0040322 0 1 1 21055.56 58845.04 M 20931.1 30905.04 A 200.0040322 200.0040322 0 1 1 20928.56 30905.04" fill="none" stroke-width="400"/><path d="M 40407.84 49276 A 2692.65 2692.65 0 0 1 35022.54 49276 2692.65 2692.65 0 0 1 40407.84 49276 M 40280.84 28575 A 2692.65 2692.65 0 0 1 34895.54 28575 2692.65 2692.65 0 0 1 40280.84 28575 M 65277.24 38100 A 7999.98 7999.98 0 0 1 49277.28 38100 7999.98 7999.98 0 0 1 65277.24 38100" fill="none" stroke-width="254"/></g><g id="iumri1lnbtsTFuejHTB9_top_copper"><path d="M 83929.22 55222.13 85867.24 54483 M 83929.22 55222.13 85867.24 55961.28 M 85222.08 54759.86 85222.08 55684.42 M 84391.5 57955.18 84206.08 57863.73 84020.65 57678.31 83929.22 57492.89 83929.22 57124.6 84020.65 56939.18 84206.08 56756.29 84391.5 56662.31 84668.36 56570.87 85128.09 56570.87 85407.5 56662.31 85590.38 56756.29 85775.79 56939.18 85867.24 57124.6 85867.24 57492.89 85775.79 57678.31 85590.38 57863.73 85407.5 57955.18 M 83929.22 38445.44 83929.22 37523.42 84759.79 37429.44 84668.36 37523.42 84574.38 37800.28 84574.38 38077.13 84668.36 38354 84851.24 38539.42 85128.09 38630.86 85313.52 38630.86 85590.38 38539.42 85775.79 38354 85867.24 38077.13 85867.24 37800.28 85775.79 37523.42 85684.36 37429.44 85498.93 37338 M 83929.22 39240.45 85867.24 39979.6 M 83929.22 40718.73 85867.24 39979.6 M 84391.5 44135.04 84206.08 44043.6 84020.65 43858.18 83929.22 43675.29 83929.22 43304.45 84020.65 43119.04 84206.08 42936.15 84391.5 42842.18 84668.36 42750.73 85128.09 42750.73 85407.5 42842.18 85590.38 42936.15 85775.79 43119.04 85867.24 43304.45 85867.24 43675.29 85775.79 43858.18 85590.38 44043.6 85407.5 44135.04 85128.09 44135.04 M 85128.09 43675.29 85128.09 44135.04 M 84264.5 22974.29 84079.08 22882.86 83893.65 22697.44 83802.22 22514.55 83802.22 22143.71 83893.65 21958.29 84079.08 21775.42 84264.5 21681.44 84541.36 21590 85001.09 21590 85280.5 21681.44 85463.38 21775.42 85648.79 21958.29 85740.24 22143.71 85740.24 22514.55 85648.79 22697.44 85463.38 22882.86 85280.5 22974.29 85001.09 22974.29 M 85001.09 22514.55 85001.09 22974.29 M 84170.52 25006.29 84079.08 25191.71 83802.22 25468.57 85740.24 25468.57 M 84264.5 26172.15 84170.52 26172.15 83985.09 26263.6 83893.65 26355.04 83802.22 26540.45 83802.22 26911.29 83893.65 27094.18 83985.09 27188.15 84170.52 27279.6 84355.93 27279.6 84541.36 27188.15 84818.22 27002.73 85740.24 26078.18 85740.24 27371.04 M 83802.22 27980.63 85740.24 28719.78 M 83802.22 29458.92 85740.24 28719.78" fill="none" stroke-width="203.2"/><use xlink:href="#mA2_Zxs-brq-yWVh97KI_pad-11" x="47117" y="60579"/><use xlink:href="#mA2_Zxs-brq-yWVh97KI_pad-11" x="42037" y="60579"/><use xlink:href="#mA2_Zxs-brq-yWVh97KI_pad-11" x="52197" y="60579"/><use xlink:href="#mA2_Zxs-brq-yWVh97KI_pad-11" x="57277" y="60579"/><use xlink:href="#mA2_Zxs-brq-yWVh97KI_pad-12" x="76962" y="53629.55"/><use xlink:href="#mA2_Zxs-brq-yWVh97KI_pad-12" x="76962" y="58638.44"/><use xlink:href="#mA2_Zxs-brq-yWVh97KI_pad-12" x="76962" y="23149.55"/><use xlink:href="#mA2_Zxs-brq-yWVh97KI_pad-12" x="76962" y="28158.44"/><use xlink:href="#mA2_Zxs-brq-yWVh97KI_pad-12" x="76962" y="38389.55"/><use xlink:href="#mA2_Zxs-brq-yWVh97KI_pad-12" x="76962" y="43398.44"/><use xlink:href="#mA2_Zxs-brq-yWVh97KI_pad-13" x="43215.05" y="51776.12"/><use xlink:href="#mA2_Zxs-brq-yWVh97KI_pad-13" x="43215.05" y="46776.13"/><use xlink:href="#mA2_Zxs-brq-yWVh97KI_pad-13" x="31714.94" y="49276"/><use xlink:href="#mA2_Zxs-brq-yWVh97KI_pad-13" x="43088.05" y="31075.12"/><use xlink:href="#mA2_Zxs-brq-yWVh97KI_pad-13" x="43088.05" y="26075.13"/><use xlink:href="#mA2_Zxs-brq-yWVh97KI_pad-13" x="31587.94" y="28575"/><use xlink:href="#mA2_Zxs-brq-yWVh97KI_pad-12" x="28240.99" y="63500"/><use xlink:href="#mA2_Zxs-brq-yWVh97KI_pad-12" x="18241.01" y="63500"/><use xlink:href="#mA2_Zxs-brq-yWVh97KI_pad-12" x="28113.99" y="36703"/><use xlink:href="#mA2_Zxs-brq-yWVh97KI_pad-12" x="18114.01" y="36703"/><use xlink:href="#mA2_Zxs-brq-yWVh97KI_pad-14" x="61027.05" y="38100"/><use xlink:href="#mA2_Zxs-brq-yWVh97KI_pad-14" x="53527.19" y="38100"/><use xlink:href="#mA2_Zxs-brq-yWVh97KI_pad-15" x="18288.25" y="56509.92"/><use xlink:href="#mA2_Zxs-brq-yWVh97KI_pad-15" x="15748" y="56519.82"/><use xlink:href="#mA2_Zxs-brq-yWVh97KI_pad-16" x="20828.25" y="56509.92"/><use xlink:href="#mA2_Zxs-brq-yWVh97KI_pad-15" x="18161.25" y="28569.92"/><use xlink:href="#mA2_Zxs-brq-yWVh97KI_pad-15" x="15621" y="28579.82"/><use xlink:href="#mA2_Zxs-brq-yWVh97KI_pad-16" x="20701.25" y="28569.92"/></g><g id="iumri1lnbtsTFuejHTB9_top_soldermask" transform="scale(25.4,25.4)"><use xlink:href="#vXYnCg87voR9zrNDI_vV_pad-10" x="47117" y="60579"/><use xlink:href="#vXYnCg87voR9zrNDI_vV_pad-10" x="42037" y="60579"/><use xlink:href="#vXYnCg87voR9zrNDI_vV_pad-10" x="52197" y="60579"/><use xlink:href="#vXYnCg87voR9zrNDI_vV_pad-10" x="57277" y="60579"/><use xlink:href="#vXYnCg87voR9zrNDI_vV_pad-11" x="76962" y="53629.55"/><use xlink:href="#vXYnCg87voR9zrNDI_vV_pad-11" x="76962" y="58638.44"/><use xlink:href="#vXYnCg87voR9zrNDI_vV_pad-11" x="76962" y="23149.55"/><use xlink:href="#vXYnCg87voR9zrNDI_vV_pad-11" x="76962" y="28158.44"/><use xlink:href="#vXYnCg87voR9zrNDI_vV_pad-11" x="76962" y="38389.55"/><use xlink:href="#vXYnCg87voR9zrNDI_vV_pad-11" x="76962" y="43398.44"/><use xlink:href="#vXYnCg87voR9zrNDI_vV_pad-12" x="43215" y="51776.02"/><use xlink:href="#vXYnCg87voR9zrNDI_vV_pad-12" x="43215" y="46776"/><use xlink:href="#vXYnCg87voR9zrNDI_vV_pad-12" x="31714.99" y="49276.02"/><use xlink:href="#vXYnCg87voR9zrNDI_vV_pad-12" x="43088" y="31075.02"/><use xlink:href="#vXYnCg87voR9zrNDI_vV_pad-12" x="43088" y="26075"/><use xlink:href="#vXYnCg87voR9zrNDI_vV_pad-12" x="31587.99" y="28575.02"/><use xlink:href="#vXYnCg87voR9zrNDI_vV_pad-13" x="28240.99" y="63500"/><use xlink:href="#vXYnCg87voR9zrNDI_vV_pad-13" x="18241.01" y="63500"/><use xlink:href="#vXYnCg87voR9zrNDI_vV_pad-13" x="28113.99" y="36703"/><use xlink:href="#vXYnCg87voR9zrNDI_vV_pad-13" x="18114.01" y="36703"/><use xlink:href="#vXYnCg87voR9zrNDI_vV_pad-14" x="61027.05" y="38100"/><use xlink:href="#vXYnCg87voR9zrNDI_vV_pad-14" x="53527.19" y="38100"/><use xlink:href="#vXYnCg87voR9zrNDI_vV_pad-15" x="18288.25" y="56509.92"/><use xlink:href="#vXYnCg87voR9zrNDI_vV_pad-15" x="15748" y="56519.82"/><use xlink:href="#vXYnCg87voR9zrNDI_vV_pad-16" x="20828.12" y="56510.04"/><use xlink:href="#vXYnCg87voR9zrNDI_vV_pad-15" x="18161.25" y="28569.92"/><use xlink:href="#vXYnCg87voR9zrNDI_vV_pad-15" x="15621" y="28579.82"/><use xlink:href="#vXYnCg87voR9zrNDI_vV_pad-16" x="20701.12" y="28570.04"/></g><g id="iumri1lnbtsTFuejHTB9_top_drill1"><use xlink:href="#AyfipWqQIYO-4_Evl7hq_pad-1" x="28241" y="63500"/><use xlink:href="#AyfipWqQIYO-4_Evl7hq_pad-1" x="18241" y="63500"/><use xlink:href="#AyfipWqQIYO-4_Evl7hq_pad-1" x="28114" y="36703"/><use xlink:href="#AyfipWqQIYO-4_Evl7hq_pad-1" x="18114" y="36703"/><use xlink:href="#AyfipWqQIYO-4_Evl7hq_pad-2" x="43215" y="51776"/><use xlink:href="#AyfipWqQIYO-4_Evl7hq_pad-2" x="43215" y="46776"/><use xlink:href="#AyfipWqQIYO-4_Evl7hq_pad-2" x="31715" y="49276"/><use xlink:href="#AyfipWqQIYO-4_Evl7hq_pad-2" x="43088" y="31075"/><use xlink:href="#AyfipWqQIYO-4_Evl7hq_pad-2" x="43088" y="26075"/><use xlink:href="#AyfipWqQIYO-4_Evl7hq_pad-2" x="31588" y="28575"/><use xlink:href="#AyfipWqQIYO-4_Evl7hq_pad-3" x="76962" y="53630"/><use xlink:href="#AyfipWqQIYO-4_Evl7hq_pad-3" x="76962" y="58638"/><use xlink:href="#AyfipWqQIYO-4_Evl7hq_pad-3" x="76962" y="23150"/><use xlink:href="#AyfipWqQIYO-4_Evl7hq_pad-3" x="76962" y="28158"/><use xlink:href="#AyfipWqQIYO-4_Evl7hq_pad-3" x="76962" y="38390"/><use xlink:href="#AyfipWqQIYO-4_Evl7hq_pad-3" x="76962" y="43398"/><use xlink:href="#AyfipWqQIYO-4_Evl7hq_pad-3" x="61027" y="38100"/><use xlink:href="#AyfipWqQIYO-4_Evl7hq_pad-3" x="53527" y="38100"/><use xlink:href="#AyfipWqQIYO-4_Evl7hq_pad-3" x="18288" y="56510"/><use xlink:href="#AyfipWqQIYO-4_Evl7hq_pad-3" x="15748" y="56520"/><use xlink:href="#AyfipWqQIYO-4_Evl7hq_pad-3" x="20828" y="56510"/><use xlink:href="#AyfipWqQIYO-4_Evl7hq_pad-3" x="18161" y="28570"/><use xlink:href="#AyfipWqQIYO-4_Evl7hq_pad-3" x="15621" y="28580"/><use xlink:href="#AyfipWqQIYO-4_Evl7hq_pad-3" x="20701" y="28570"/><use xlink:href="#AyfipWqQIYO-4_Evl7hq_pad-4" x="47117" y="60579"/><use xlink:href="#AyfipWqQIYO-4_Evl7hq_pad-4" x="42037" y="60579"/><use xlink:href="#AyfipWqQIYO-4_Evl7hq_pad-4" x="52197" y="60579"/><use xlink:href="#AyfipWqQIYO-4_Evl7hq_pad-4" x="57277" y="60579"/></g><g id="iumri1lnbtsTFuejHTB9_top_drill2"><use xlink:href="#DLw79n8q6JtlzOEb8NZ5_pad-1" x="10033" y="66040"/><use xlink:href="#DLw79n8q6JtlzOEb8NZ5_pad-1" x="10033" y="16637"/><use xlink:href="#DLw79n8q6JtlzOEb8NZ5_pad-1" x="86360" y="16637"/><use xlink:href="#DLw79n8q6JtlzOEb8NZ5_pad-1" x="86360" y="66040"/></g><clipPath id="iumri1lnbtsTFuejHTB9_top_outline"><path d="M 7747 68326 88746.83 68326 88746.83 14326.1 7747 14326.1 7747 68326" fill="none" stroke-width="254"/></clipPath><mask id="iumri1lnbtsTFuejHTB9_top_mech-mask"><g fill="#000" stroke="#000"><rect x="7747" y="14326.1" width="80999.83" height="53999.9" fill="#fff"/><use xlink:href="#iumri1lnbtsTFuejHTB9_top_drill1"/><use xlink:href="#iumri1lnbtsTFuejHTB9_top_drill2"/></g></mask><mask id="iumri1lnbtsTFuejHTB9_top_cf-mask"><g fill="#fff" stroke="#fff"><use xlink:href="#iumri1lnbtsTFuejHTB9_top_soldermask"/></g></mask><mask id="iumri1lnbtsTFuejHTB9_top_sm-mask"><g fill="#000" stroke="#000"><rect x="7747" y="14326.1" width="80999.83" height="53999.9" fill="#fff"/><use xlink:href="#iumri1lnbtsTFuejHTB9_top_soldermask"/></g></mask></defs><g transform="translate(0,82652.1) scale(1,-1)"><g mask="url(#iumri1lnbtsTFuejHTB9_top_mech-mask)" clip-path="url(#iumri1lnbtsTFuejHTB9_top_outline)"><rect x="7747" y="14326.1" width="80999.83" height="53999.9" fill="currentColor" class="iumri1lnbtsTFuejHTB9_fr4"/><use xlink:href="#iumri1lnbtsTFuejHTB9_top_copper" fill="currentColor" stroke="currentColor" class="iumri1lnbtsTFuejHTB9_cu"/><use xlink:href="#iumri1lnbtsTFuejHTB9_top_copper" fill="currentColor" stroke="currentColor" class="iumri1lnbtsTFuejHTB9_cf" mask="url(#iumri1lnbtsTFuejHTB9_top_cf-mask)"/><g mask="url(#iumri1lnbtsTFuejHTB9_top_sm-mask)"><rect x="7747" y="14326.1" width="80999.83" height="53999.9" fill="currentColor" class="iumri1lnbtsTFuejHTB9_sm"/><use xlink:href="#iumri1lnbtsTFuejHTB9_top_silkscreen" fill="currentColor" stroke="currentColor" class="iumri1lnbtsTFuejHTB9_ss"/></g></g></g></svg>