<svg version="1.1" xmlns="http://www.w3.org/2000/svg" xmlns:xlink="http://www.w3.org/1999/xlink" stroke-linecap="round" stroke-linejoin="round" stroke-width="0" fill-rule="evenodd" clip-rule="evenodd" id="QDTxx7B1R-Lwyy0tED1J_bottom" viewBox="6999.98 28999.94 57999.880000000005 38999.92" width="57.999880000000005mm" height="38.999919999999996mm" class="w-100 h-100"><defs><style>.QDTxx7B1R-Lwyy0tED1J_fr4 {color: #666666;}
.QDTxx7B1R-Lwyy0tED1J_cu {color: #cccccc;}
.QDTxx7B1R-Lwyy0tED1J_cf {color: #cc9933;}
.QDTxx7B1R-Lwyy0tED1J_sm {color: #004200; opacity: 0.75;}
.QDTxx7B1R-Lwyy0tED1J_ss {color: #ffffff;}
.QDTxx7B1R-Lwyy0tED1J_sp {color: #999999;}
.QDTxx7B1R-Lwyy0tED1J_out {color: #000000;}</style><circle cx="0" cy="0" r="1200" id="gSKm7QBhRn3Rp14MS8Qt_pad-11"/><rect x="-1249.9975" y="-999.998" width="2499.995" height="1999.996" rx="999.998" ry="999.998" id="gSKm7QBhRn3Rp14MS8Qt_pad-12"/><circle cx="0" cy="0" r="1000" id="gSKm7QBhRn3Rp14MS8Qt_pad-13"/><circle cx="0" cy="0" r="1100" id="gSKm7QBhRn3Rp14MS8Qt_pad-14"/><rect x="-1299.9974" y="-899.9982" width="2599.9948" height="1799.9964" rx="899.9982" ry="899.9982" id="gSKm7QBhRn3Rp14MS8Qt_pad-15"/><rect x="-1300" y="-900" width="2600" height="1800" id="gSKm7QBhRn3Rp14MS8Qt_pad-16"/><circle cx="0" cy="0" r="1250" id="utFdGfd-2XCeyIu8_G5c_pad-10"/><rect x="-1300.7975" y="-1050.798" width="2601.595" height="2101.596" rx="1050.798" ry="1050.798" id="utFdGfd-2XCeyIu8_G5c_pad-11"/><circle cx="0" cy="0" r="1050.8" id="utFdGfd-2XCeyIu8_G5c_pad-12"/><circle cx="0" cy="0" r="1150.8" id="utFdGfd-2XCeyIu8_G5c_pad-13"/><rect x="-1350.7974" y="-950.7982" width="2701.5948" height="1901.5964" rx="950.7982" ry="950.7982" id="utFdGfd-2XCeyIu8_G5c_pad-14"/><g id="utFdGfd-2XCeyIu8_G5c_pad-15"><circle cx="1300" cy="900" r="50.8"/><circle cx="1300" cy="0" r="50.8"/><circle cx="-1300" cy="-900" r="50.8"/><circle cx="-1300" cy="0" r="50.8"/><polygon points="1350.8,900 1350.8,NaN 1249.2,NaN 1249.2,900"/><polygon points="1350.8,NaN -1249.2,-900 -1350.8,-900 1249.2,NaN"/><polygon points="-1249.2,-900 -1249.2,NaN -1350.8,NaN -1350.8,-900"/><polygon points="-1249.2,NaN 1350.8,900 1249.2,900 -1350.8,NaN"/><polygon points="NaN,NaN NaN,NaN NaN,NaN NaN,NaN"/></g><circle cx="0" cy="0" r="600" id="GyrsQiemVZtHf5UUY-OG_pad-1"/><circle cx="0" cy="0" r="800" id="GyrsQiemVZtHf5UUY-OG_pad-2"/><g id="QDTxx7B1R-Lwyy0tED1J_bottom_copper"><path d="M 56642 32674.55 60999.87 32674.55 60999.87 49999.89 57025.54 49999.89 56642 50383.44 M 11430 35814 11430 32999.68 48260 32999.68 48260 37846 56479.43 37846 56642 37683.44 M 31363.91 35940.74 42999.91 35940.74 42999.91 44999.9 56267.34 44999.9 56642 45374.55 M 11434.95 40894.12 11561.95 41021.12 31373.95 41021.12 M 11434.95 38354.12 11561.95 38481.12 31373.95 38481.12 M 12506.07 57531 11434.95 56459.88 11434.95 40894.12 M 30480 60833 27178 57531 20005.92 57531 M 31373.95 38481.12 38227 38481 38227 50292 38318.43 50383.44 56642 50383.44 M 38318.43 50383.44 38282.88 50419 20066 50419 20005.92 50479.07 20005.92 57531 M 56642 63083.44 56606.43 63119 50927 63119 50927 56769 40767 56769 40640 56896 40640 60833 M 45720 60833 42545 64008 12573 64008 12506.07 63941.07 12506.07 57531 M 56642 58074.55 56642 54483 56515 54356 35560 54356 35560 60833" fill="none" stroke-width="1500"/><use xlink:href="#gSKm7QBhRn3Rp14MS8Qt_pad-11" x="15999.96" y="38299.89"/><use xlink:href="#gSKm7QBhRn3Rp14MS8Qt_pad-11" x="35999.92" y="38399.97"/><use xlink:href="#gSKm7QBhRn3Rp14MS8Qt_pad-12" x="40640" y="60833"/><use xlink:href="#gSKm7QBhRn3Rp14MS8Qt_pad-12" x="45720" y="60833"/><use xlink:href="#gSKm7QBhRn3Rp14MS8Qt_pad-12" x="35560" y="60833"/><use xlink:href="#gSKm7QBhRn3Rp14MS8Qt_pad-12" x="30480" y="60833"/><use xlink:href="#gSKm7QBhRn3Rp14MS8Qt_pad-13" x="56642" y="58074.55"/><use xlink:href="#gSKm7QBhRn3Rp14MS8Qt_pad-13" x="56642" y="63083.44"/><use xlink:href="#gSKm7QBhRn3Rp14MS8Qt_pad-13" x="56642" y="45374.55"/><use xlink:href="#gSKm7QBhRn3Rp14MS8Qt_pad-13" x="56642" y="50383.44"/><use xlink:href="#gSKm7QBhRn3Rp14MS8Qt_pad-13" x="56642" y="32674.55"/><use xlink:href="#gSKm7QBhRn3Rp14MS8Qt_pad-13" x="56642" y="37683.44"/><use xlink:href="#gSKm7QBhRn3Rp14MS8Qt_pad-14" x="20006.05" y="57531"/><use xlink:href="#gSKm7QBhRn3Rp14MS8Qt_pad-14" x="12506.19" y="57531"/><use xlink:href="#gSKm7QBhRn3Rp14MS8Qt_pad-15" x="31374.08" y="38481"/><use xlink:href="#gSKm7QBhRn3Rp14MS8Qt_pad-15" x="31363.91" y="35940.74"/><use xlink:href="#gSKm7QBhRn3Rp14MS8Qt_pad-16" x="31374.08" y="41021"/><use xlink:href="#gSKm7QBhRn3Rp14MS8Qt_pad-15" x="11435.07" y="38354"/><use xlink:href="#gSKm7QBhRn3Rp14MS8Qt_pad-15" x="11425.17" y="35813.74"/><use xlink:href="#gSKm7QBhRn3Rp14MS8Qt_pad-16" x="11435.07" y="40894"/></g><g id="QDTxx7B1R-Lwyy0tED1J_bottom_soldermask" transform="scale(25.4,25.4)"><use xlink:href="#utFdGfd-2XCeyIu8_G5c_pad-10" x="15999.96" y="38299.89"/><use xlink:href="#utFdGfd-2XCeyIu8_G5c_pad-10" x="35999.92" y="38399.97"/><use xlink:href="#utFdGfd-2XCeyIu8_G5c_pad-11" x="40640" y="60833"/><use xlink:href="#utFdGfd-2XCeyIu8_G5c_pad-11" x="45720" y="60833"/><use xlink:href="#utFdGfd-2XCeyIu8_G5c_pad-11" x="35560" y="60833"/><use xlink:href="#utFdGfd-2XCeyIu8_G5c_pad-11" x="30480" y="60833"/><use xlink:href="#utFdGfd-2XCeyIu8_G5c_pad-12" x="56642" y="58074.55"/><use xlink:href="#utFdGfd-2XCeyIu8_G5c_pad-12" x="56642" y="63083.44"/><use xlink:href="#utFdGfd-2XCeyIu8_G5c_pad-12" x="56642" y="45374.55"/><use xlink:href="#utFdGfd-2XCeyIu8_G5c_pad-12" x="56642" y="50383.44"/><use xlink:href="#utFdGfd-2XCeyIu8_G5c_pad-12" x="56642" y="32674.55"/><use xlink:href="#utFdGfd-2XCeyIu8_G5c_pad-12" x="56642" y="37683.44"/><use xlink:href="#utFdGfd-2XCeyIu8_G5c_pad-13" x="20006.05" y="57531"/><use xlink:href="#utFdGfd-2XCeyIu8_G5c_pad-13" x="12506.19" y="57531"/><use xlink:href="#utFdGfd-2XCeyIu8_G5c_pad-14" x="31374.08" y="38481"/><use xlink:href="#utFdGfd-2XCeyIu8_G5c_pad-14" x="31363.91" y="35940.74"/><use xlink:href="#utFdGfd-2XCeyIu8_G5c_pad-15" x="31373.95" y="41021.12"/><use xlink:href="#utFdGfd-2XCeyIu8_G5c_pad-14" x="11435.07" y="38354"/><use xlink:href="#utFdGfd-2XCeyIu8_G5c_pad-14" x="11425.17" y="35813.74"/><use xlink:href="#utFdGfd-2XCeyIu8_G5c_pad-15" x="11434.95" y="40894.12"/></g><g id="QDTxx7B1R-Lwyy0tED1J_bottom_drill1"><use xlink:href="#GyrsQiemVZtHf5UUY-OG_pad-1" x="56642" y="58075"/><use xlink:href="#GyrsQiemVZtHf5UUY-OG_pad-1" x="56642" y="63083"/><use xlink:href="#GyrsQiemVZtHf5UUY-OG_pad-1" x="56642" y="45375"/><use xlink:href="#GyrsQiemVZtHf5UUY-OG_pad-1" x="56642" y="50383"/><use xlink:href="#GyrsQiemVZtHf5UUY-OG_pad-1" x="56642" y="32675"/><use xlink:href="#GyrsQiemVZtHf5UUY-OG_pad-1" x="56642" y="37683"/><use xlink:href="#GyrsQiemVZtHf5UUY-OG_pad-1" x="20006" y="57531"/><use xlink:href="#GyrsQiemVZtHf5UUY-OG_pad-1" x="12506" y="57531"/><use xlink:href="#GyrsQiemVZtHf5UUY-OG_pad-1" x="31374" y="38481"/><use xlink:href="#GyrsQiemVZtHf5UUY-OG_pad-1" x="31364" y="35941"/><use xlink:href="#GyrsQiemVZtHf5UUY-OG_pad-1" x="31374" y="41021"/><use xlink:href="#GyrsQiemVZtHf5UUY-OG_pad-1" x="11435" y="38354"/><use xlink:href="#GyrsQiemVZtHf5UUY-OG_pad-1" x="11425" y="35814"/><use xlink:href="#GyrsQiemVZtHf5UUY-OG_pad-1" x="11435" y="40894"/><use xlink:href="#GyrsQiemVZtHf5UUY-OG_pad-2" x="16000" y="38300"/><use xlink:href="#GyrsQiemVZtHf5UUY-OG_pad-2" x="36000" y="38400"/><use xlink:href="#GyrsQiemVZtHf5UUY-OG_pad-2" x="40640" y="60833"/><use xlink:href="#GyrsQiemVZtHf5UUY-OG_pad-2" x="45720" y="60833"/><use xlink:href="#GyrsQiemVZtHf5UUY-OG_pad-2" x="35560" y="60833"/><use xlink:href="#GyrsQiemVZtHf5UUY-OG_pad-2" x="30480" y="60833"/></g><clipPath id="QDTxx7B1R-Lwyy0tED1J_bottom_outline"><path d="M 6999.98 67999.86 64999.86 67999.86 64999.86 28999.94 6999.98 28999.94 6999.98 67999.86" fill="none" stroke-width="254"/></clipPath><mask id="QDTxx7B1R-Lwyy0tED1J_bottom_mech-mask"><g fill="#000" stroke="#000"><rect x="6999.98" y="28999.94" width="57999.88" height="38999.92" fill="#fff"/><use xlink:href="#QDTxx7B1R-Lwyy0tED1J_bottom_drill1"/></g></mask><mask id="QDTxx7B1R-Lwyy0tED1J_bottom_cf-mask"><g fill="#fff" stroke="#fff"><use xlink:href="#QDTxx7B1R-Lwyy0tED1J_bottom_soldermask"/></g></mask><mask id="QDTxx7B1R-Lwyy0tED1J_bottom_sm-mask"><g fill="#000" stroke="#000"><rect x="6999.98" y="28999.94" width="57999.88" height="38999.92" fill="#fff"/><use xlink:href="#QDTxx7B1R-Lwyy0tED1J_bottom_soldermask"/></g></mask></defs><g transform="translate(0,96999.79999999999) scale(1,-1)"><g mask="url(#QDTxx7B1R-Lwyy0tED1J_bottom_mech-mask)" clip-path="url(#QDTxx7B1R-Lwyy0tED1J_bottom_outline)" transform="translate(71999.84,0) scale(-1,1)"><rect x="6999.98" y="28999.94" width="57999.88" height="38999.92" fill="currentColor" class="QDTxx7B1R-Lwyy0tED1J_fr4"/><use xlink:href="#QDTxx7B1R-Lwyy0tED1J_bottom_copper" fill="currentColor" stroke="currentColor" class="QDTxx7B1R-Lwyy0tED1J_cu"/><use xlink:href="#QDTxx7B1R-Lwyy0tED1J_bottom_copper" fill="currentColor" stroke="currentColor" class="QDTxx7B1R-Lwyy0tED1J_cf" mask="url(#QDTxx7B1R-Lwyy0tED1J_bottom_cf-mask)"/><g mask="url(#QDTxx7B1R-Lwyy0tED1J_bottom_sm-mask)"><rect x="6999.98" y="28999.94" width="57999.88" height="38999.92" fill="currentColor" class="QDTxx7B1R-Lwyy0tED1J_sm"/></g></g></g></svg>