<svg version="1.1" xmlns="http://www.w3.org/2000/svg" xmlns:xlink="http://www.w3.org/1999/xlink" stroke-linecap="round" stroke-linejoin="round" stroke-width="0" fill-rule="evenodd" width="54.0303395108mm" height="38.7173661601mm" viewBox="6899.4304892 28172.2638399 54030.3395108 38717.3661601" id="e6HXtsDXZ6T6_QeQfeos"><g transform="translate(0,95061.8938399) scale(1,-1)" fill="currentColor" stroke="currentColor"><path d="M 23757.12 38299.92 22977.34 38299.92 22822.4 38249.12 22718.26 38144.98 22667.46 37987.5 22667.46 37883.36 22718.26 37728.42 22822.4 37624.28 22977.34 37573.48 23757.12 37573.48 M 23757.12 36501.6 22667.46 37022.3 M 23757.12 37230.58 23757.12 36501.6 M 43757.08 38399.92 42977.3 38399.92 42822.36 38349.12 42718.22 38244.98 42667.42 38087.5 42667.42 37983.36 42718.22 37828.42 42822.36 37724.28 42977.3 37673.48 43757.08 37673.48 M 43602.14 36705.74 43706.28 36759.08 43757.08 36914.02 43757.08 37018.16 43706.28 37173.1 43548.8 37277.24 43289.72 37330.58 43030.64 37330.58 42822.36 37277.24 42718.22 37173.1 42667.42 37018.16 42667.42 36964.82 42718.22 36809.88 42822.36 36705.74 42977.3 36654.94 43030.64 36654.94 43185.58 36705.74 43289.72 36809.88 43340.52 36964.82 43340.52 37018.16 43289.72 37173.1 43185.58 37277.24 43030.64 37330.58 M 25135.84 59944 26225.5 59944 M 25135.84 59944 25135.84 60307.21 25186.63 60464.7 25290.77 60566.29 25394.91 60619.63 25552.4 60670.44 25811.47 60670.44 25966.41 60619.63 26070.56 60566.29 26174.7 60464.7 26225.5 60307.21 26225.5 59944 M 25344.11 61013.34 25290.77 61117.47 25135.84 61274.95 26225.5 61274.95 M 50967.63 60360.55 52057.29 60360.55 M 50967.63 60360.55 50967.63 60827.92 51018.43 60982.86 51071.77 61036.2 51175.91 61087 51330.86 61087 51435 61036.2 51485.79 60982.86 51539.13 60827.92 51539.13 60360.55 M 51175.91 61429.89 51122.58 61534.04 50967.63 61691.52 52057.29 61691.52 M 50967.63 47660.55 52057.29 47660.55 M 50967.63 47660.55 50967.63 48127.92 51018.43 48282.86 51071.77 48336.2 51175.91 48387 51330.86 48387 51435 48336.2 51485.79 48282.86 51539.13 48127.92 51539.13 47660.55 M 51226.72 48783.23 51175.91 48783.23 51071.77 48834.04 51018.43 48887.37 50967.63 48991.52 50967.63 49197.26 51018.43 49301.39 51071.77 49354.73 51175.91 49405.54 51280.06 49405.54 51384.2 49354.73 51539.13 49250.6 52057.29 48729.89 52057.29 49458.87 M 50967.63 34960.55 52057.29 34960.55 M 50967.63 34960.55 50967.63 35427.92 51018.43 35582.86 51071.77 35636.2 51175.91 35687 51330.86 35687 51435 35636.2 51485.79 35582.86 51539.13 35427.92 51539.13 34960.55 M 50967.63 36134.04 50967.63 36705.54 51384.2 36395.65 51384.2 36550.6 51435 36654.73 51485.79 36705.54 51643.27 36758.87 51747.41 36758.87 51902.36 36705.54 52006.5 36601.39 52057.29 36446.45 52057.29 36291.52 52006.5 36134.04 51955.7 36083.23 51851.56 36029.89 M 16020.16 66813.43 16020.16 66033.64 16070.96 65878.7 16175.1 65774.56 16332.58 65723.77 16436.72 65723.77 16591.66 65774.56 16695.8 65878.7 16746.6 66033.64 16746.6 66813.43 M 17089.5 66605.14 17193.64 66658.48 17351.12 66813.43 17351.12 65723.77 M 36337.11 38608.12 35557.33 38608.12 35402.39 38557.32 35298.25 38453.18 35247.45 38295.7 35247.45 38191.56 35298.25 38036.62 35402.39 37932.48 35557.33 37881.68 36337.11 37881.68 M 36078.03 37485.44 36128.83 37485.44 36232.97 37434.64 36286.31 37381.3 36337.11 37277.16 36337.11 37071.42 36286.31 36967.28 36232.97 36913.94 36128.83 36863.14 36024.69 36863.14 35920.55 36913.94 35765.61 37018.08 35247.45 37538.78 35247.45 36809.8 M 16398.11 38481.12 15618.33 38481.12 15463.39 38430.32 15359.25 38326.18 15308.45 38168.7 15308.45 38064.56 15359.25 37909.62 15463.39 37805.48 15618.33 37754.68 16398.11 37754.68 M 16398.11 37307.64 16398.11 36736.14 15981.55 37046.02 15981.55 36891.08 15930.75 36786.94 15879.95 36736.14 15722.47 36682.8 15618.33 36682.8 15463.39 36736.14 15359.25 36840.28 15308.45 36995.22 15308.45 37150.16 15359.25 37307.64 15410.05 37358.44 15514.19 37411.78" fill="none" stroke-width="152.4"/><path d="M 21463 63627 21463 51435 21654.51 51605.18 21840.44 51781.45 22020.27 51963.82 22194.52 52151.28 22362.66 52344.82 22524.72 52542.94 22680.16 52746.65 22829.52 52954.93 22971.76 53168.29 23040.34 53275.99 23171.91 53495.95 23296.88 53719.47 23414.73 53947.06 23471.12 54061.86 23577.8 54295.04 23676.86 54531.26 23768.81 54770.52 23852.63 55012.33 23928.83 55256.68 23997.41 55503.57 24057.86 55752.49 24110.69 56003.44 24155.4 56255.41 24191.97 56508.9 24220.42 56763.41 24240.74 57018.93 24252.93 57274.96 24257 57531 24252.93 57787.03 24240.74 58043.06 24220.42 58298.58 24191.97 58553.09 24155.4 58806.58 24110.69 59058.55 24057.86 59309.5 23997.41 59558.42 23928.83 59805.31 23852.63 60049.66 23768.81 60291.47 23676.86 60530.74 23577.8 60766.96 23471.12 61000.13 23356.82 61229.24 23235.41 61454.79 23106.88 61676.28 23040.34 61786 22901.14 62000.89 22755.86 62211.71 22603.46 62417.45 22444.45 62618.62 22279.35 62814.7 22108.16 63005.2 21930.86 63190.12 21747.98 63369.44 21559.52 63542.67"/><path d="M 15951.7 47299.14 15951.7 44776.92 21450.8 44799.78 M 7617.96 28299.91 21617.96 28299.91 M 21618.44 29300.7 15999.96 29300.7 M 21490.96 47299.93 15952.8 47299.93 M 21490.99 31799.91 15999.96 31799.91 15999.96 29299.91 M 21491.44 32800.82 15999.96 32800.82 M 21490.99 35299.92 15999.96 35299.92 15999.96 32838.92 M 21491.44 36300.94 17871.94 36300.94 16946.44 37226.44 M 21490.96 40299.91 17904.96 40299.91 17618.96 40299.91 16803.31 39484.27 M 21491.44 41299.66 15999.96 41299.66 M 21490.96 43799.93 15999.96 43799.93 15999.96 41347.92 M 7490.96 48299.92 21490.96 48299.92 M 13999.97 29299.91 7559.95 29299.91 M 13999.97 47299.93 7559.95 47299.93 M 13999.97 47299.93 13999.97 29299.91 M 35951.66 47399.14 35951.66 44876.92 41450.76 44899.78 M 27617.92 28399.91 41617.92 28399.91 M 41618.4 29400.7 35999.92 29400.7 M 41490.92 47399.93 35952.76 47399.93 M 41490.95 31899.91 35999.92 31899.91 35999.92 29399.91 M 41491.4 32900.82 35999.92 32900.82 M 41490.95 35399.92 35999.92 35399.92 35999.92 32938.92 M 41491.4 36400.94 37871.9 36400.94 36946.4 37326.44 M 41490.92 40399.91 37904.92 40399.91 37618.92 40399.91 36803.27 39584.27 M 41491.4 41399.66 35999.92 41399.66 M 41490.92 43899.93 35999.92 43899.93 35999.92 41447.92 M 27490.92 48399.92 41490.92 48399.92 M 33999.93 29399.91 27559.91 29399.91 M 33999.93 47399.93 27559.91 47399.93 M 33999.93 47399.93 33999.93 29399.91 M 48900 58163 48900 62132.99" fill="none" stroke-width="254"/><path d="M 31060 59033 30060.01 59033 M 46300 59033 45300.01 59033 M 45800 58533 45800 59533" fill="none" stroke-width="203.2"/><path d="M 49300 62232.99 49300 58163 26899.99 58163 26899.99 62232.99 49300 62232.99 M 52642.77 55334.66 52642.77 65834.51 M 52642.77 55344.31 60742.83 55344.31 M 52642.77 65844.16 60742.83 65844.16 M 54082.69 55334.66 54082.69 65834.51 M 60802.77 55344.31 60802.77 65844.16 M 52720.74 62054.48 53260.75 62054.48 53260.75 63584.32 52720.74 63584.32 M 52690.77 57236.36 53230.77 57236.36 53230.77 58766.2 52690.77 58766.2 M 60352.68 55334.66 60352.68 65834.51 M 59782.7 55334.66 59782.7 65834.51 M 52642.77 42634.66 52642.77 53134.51 M 52642.77 42644.31 60742.83 42644.31 M 52642.77 53144.16 60742.83 53144.16 M 54082.69 42634.66 54082.69 53134.51 M 60802.77 42644.31 60802.77 53144.16 M 52720.74 49354.48 53260.75 49354.48 53260.75 50884.32 52720.74 50884.32 M 52690.77 44536.36 53230.77 44536.36 53230.77 46066.2 52690.77 46066.2 M 60352.68 42634.66 60352.68 53134.51 M 59782.7 42634.66 59782.7 53134.51 M 52642.77 29934.66 52642.77 40434.51 M 52642.77 29944.31 60742.83 29944.31 M 52642.77 40444.16 60742.83 40444.16 M 54082.69 29934.66 54082.69 40434.51 M 60802.77 29944.31 60802.77 40444.16 M 52720.74 36654.48 53260.75 36654.48 53260.75 38184.32 52720.74 38184.32 M 52690.77 31836.36 53230.77 31836.36 53230.77 33366.2 52690.77 33366.2 M 60352.68 29934.66 60352.68 40434.51 M 59782.7 29934.66 59782.7 40434.51 M 9490.27 56997.52 9490.27 58724.72 M 10379.27 57835.72 8702.87 57835.72 M 34463.02 43782.13 34463.02 33180.12 29664.93 33180.12 29664.93 43782.13 34457.94 43782.13 34463.02 43782.13 M 33863.86 33181.16 33863.86 43781.09 M 14524.02 43655.13 14524.02 33053.12 9725.93 33053.12 9725.93 43655.13 14518.94 43655.13 14524.02 43655.13 M 13924.86 33054.16 13924.86 43654.09 M 7490.97 48299.93 A 501.5795108 501.5795108 0 0 1 7559.55 47299.14 M 7559.95 29299.92 A 500.8461601 500.8461601 0 0 1 7617.97 28299.94 M 21490.97 47299.93 A 500.0010225 500.0010225 0 0 1 21491.45 48299.9 M 21490.97 40299.92 A 499.8700576 499.8700576 0 1 1 21491.45 41299.66 M 21490.99 35299.93 A 500.5100528 500.5100528 0 0 1 21491.45 36300.94 M 21490.99 31799.91 A 500.4600529 500.4600529 0 0 1 21491.45 32800.82 M 21617.97 28299.92 A 500.4010137 500.4010137 0 0 1 21618.45 29300.7 M 21490.97 43799.94 A 499.9200576 499.9200576 0 1 1 21491.45 44799.78 M 27490.93 48399.93 A 501.5795108 501.5795108 0 0 1 27559.51 47399.14 M 27559.91 29399.92 A 500.8461601 500.8461601 0 0 1 27617.93 28399.94 M 41490.93 47399.93 A 500.0010225 500.0010225 0 0 1 41491.41 48399.9 M 41490.93 40399.92 A 499.8700576 499.8700576 0 0 1 41491.41 41399.66 M 41490.95 35399.93 A 500.5100528 500.5100528 0 0 1 41491.41 36400.94 M 41490.95 31899.91 A 500.4600529 500.4600529 0 0 1 41491.41 32900.82 M 41617.93 28399.92 A 500.4010137 500.4010137 0 0 1 41618.41 29400.7 M 41490.93 43899.94 A 499.9200576 499.9200576 0 0 1 41491.41 44899.78" fill="none" stroke-width="254"/><path d="M 35001.2 59133.74 A 299.9992033 299.9992033 0 0 1 35600.64 59133.74 M 36200.08 59133.74 A 299.9992033 299.9992033 0 0 1 35600.64 59133.74 M 41280.08 59133.74 A 299.9992033 299.9992033 0 0 1 40680.64 59133.74 M 40081.2 59133.74 A 299.9992033 299.9992033 0 0 1 40680.64 59133.74" fill="none" stroke-width="203.2"/><path d="M 29038.96 41251.1 A 200.0040322 200.0040322 0 1 1 29038.96 41248.56 M 9099.96 41124.1 A 200.0040322 200.0040322 0 1 1 9099.96 41121.56" fill="none" stroke-width="400"/><path d="M 24256.24 57531 A 7999.98 7999.98 0 0 1 8256.28 57531 7999.98 7999.98 0 0 1 24256.24 57531" fill="none" stroke-width="254"/></g></svg>