<svg version="1.1" xmlns="http://www.w3.org/2000/svg" xmlns:xlink="http://www.w3.org/1999/xlink" stroke-linecap="round" stroke-linejoin="round" stroke-width="0" fill-rule="evenodd" width="53.8726674mm" height="33.18511mm" viewBox="10125.1726 30898.33 53872.6674 33185.11" id="E6ynGfoae085BuiwMcNq"><defs><circle cx="0" cy="0" r="1200" id="E6ynGfoae085BuiwMcNq_pad-11"/><rect x="-1249.9975" y="-999.998" width="2499.995" height="1999.996" rx="999.998" ry="999.998" id="E6ynGfoae085BuiwMcNq_pad-12"/><circle cx="0" cy="0" r="1000" id="E6ynGfoae085BuiwMcNq_pad-13"/><circle cx="0" cy="0" r="1100" id="E6ynGfoae085BuiwMcNq_pad-14"/><rect x="-1299.9974" y="-899.9982" width="2599.9948" height="1799.9964" rx="899.9982" ry="899.9982" id="E6ynGfoae085BuiwMcNq_pad-15"/><rect x="-1300" y="-900" width="2600" height="1800" id="E6ynGfoae085BuiwMcNq_pad-16"/></defs><g transform="translate(0,94981.77) scale(1,-1)" fill="currentColor" stroke="currentColor"><path d="M 61958.22 59794.13 63896.24 59055 M 61958.22 59794.13 63896.24 60533.28 M 63251.08 59331.86 63251.08 60256.42 M 62420.5 62527.18 62235.08 62435.73 62049.65 62250.31 61958.22 62064.89 61958.22 61696.6 62049.65 61511.18 62235.08 61328.29 62420.5 61234.31 62697.36 61142.87 63157.09 61142.87 63436.5 61234.31 63619.38 61328.29 63804.79 61511.18 63896.24 61696.6 63896.24 62064.89 63804.79 62250.31 63619.38 62435.73 63436.5 62527.18 M 61950.09 45107.35 61950.09 44185.33 62780.67 44091.35 62689.23 44185.33 62595.25 44462.19 62595.25 44739.05 62689.23 45015.91 62872.11 45201.33 63148.97 45292.77 63334.39 45292.77 63611.25 45201.33 63796.67 45015.91 63888.11 44739.05 63888.11 44462.19 63796.67 44185.33 63705.23 44091.35 63519.81 43999.91 M 61950.09 45902.37 63888.11 46641.51 M 61950.09 47380.65 63888.11 46641.51 M 62412.37 50796.95 62226.95 50705.51 62041.53 50520.09 61950.09 50337.21 61950.09 49966.37 62041.53 49780.95 62226.95 49598.07 62412.37 49504.09 62689.23 49412.65 63148.97 49412.65 63428.37 49504.09 63611.25 49598.07 63796.67 49780.95 63888.11 49966.37 63888.11 50337.21 63796.67 50520.09 63611.25 50705.51 63428.37 50796.95 63148.97 50796.95 M 63148.97 50337.21 63148.97 50796.95 M 62412.37 32384.23 62226.95 32292.79 62041.53 32107.37 61950.09 31924.49 61950.09 31553.65 62041.53 31368.23 62226.95 31185.35 62412.37 31091.37 62689.23 30999.93 63148.97 30999.93 63428.37 31091.37 63611.25 31185.35 63796.67 31368.23 63888.11 31553.65 63888.11 31924.49 63796.67 32107.37 63611.25 32292.79 63428.37 32384.23 63148.97 32384.23 M 63148.97 31924.49 63148.97 32384.23 M 62318.39 34416.23 62226.95 34601.65 61950.09 34878.51 63888.11 34878.51 M 62412.37 35582.09 62318.39 35582.09 62132.97 35673.53 62041.53 35764.97 61950.09 35950.39 61950.09 36321.23 62041.53 36504.11 62132.97 36598.09 62318.39 36689.53 62503.81 36689.53 62689.23 36598.09 62966.09 36412.67 63888.11 35488.11 63888.11 36780.97 M 61950.09 37390.57 63888.11 38129.71 M 61950.09 38868.85 63888.11 38129.71" fill="none" stroke-width="203.2"/><use xlink:href="#E6ynGfoae085BuiwMcNq_pad-11" x="15999.96" y="38299.89"/><use xlink:href="#E6ynGfoae085BuiwMcNq_pad-11" x="35999.92" y="38399.97"/><use xlink:href="#E6ynGfoae085BuiwMcNq_pad-12" x="40640" y="60833"/><use xlink:href="#E6ynGfoae085BuiwMcNq_pad-12" x="45720" y="60833"/><use xlink:href="#E6ynGfoae085BuiwMcNq_pad-12" x="35560" y="60833"/><use xlink:href="#E6ynGfoae085BuiwMcNq_pad-12" x="30480" y="60833"/><use xlink:href="#E6ynGfoae085BuiwMcNq_pad-13" x="56642" y="58074.55"/><use xlink:href="#E6ynGfoae085BuiwMcNq_pad-13" x="56642" y="63083.44"/><use xlink:href="#E6ynGfoae085BuiwMcNq_pad-13" x="56642" y="45374.55"/><use xlink:href="#E6ynGfoae085BuiwMcNq_pad-13" x="56642" y="50383.44"/><use xlink:href="#E6ynGfoae085BuiwMcNq_pad-13" x="56642" y="32674.55"/><use xlink:href="#E6ynGfoae085BuiwMcNq_pad-13" x="56642" y="37683.44"/><use xlink:href="#E6ynGfoae085BuiwMcNq_pad-14" x="20006.05" y="57531"/><use xlink:href="#E6ynGfoae085BuiwMcNq_pad-14" x="12506.19" y="57531"/><use xlink:href="#E6ynGfoae085BuiwMcNq_pad-15" x="31374.08" y="38481"/><use xlink:href="#E6ynGfoae085BuiwMcNq_pad-15" x="31363.91" y="35940.74"/><use xlink:href="#E6ynGfoae085BuiwMcNq_pad-16" x="31374.08" y="41021"/><use xlink:href="#E6ynGfoae085BuiwMcNq_pad-15" x="11435.07" y="38354"/><use xlink:href="#E6ynGfoae085BuiwMcNq_pad-15" x="11425.17" y="35813.74"/><use xlink:href="#E6ynGfoae085BuiwMcNq_pad-16" x="11435.07" y="40894"/></g></svg>