<svg version="1.1" xmlns="http://www.w3.org/2000/svg" xmlns:xlink="http://www.w3.org/1999/xlink" stroke-linecap="round" stroke-linejoin="round" stroke-width="0" fill-rule="evenodd" width="0" height="0" viewBox="0 0 0 0" id="utFdGfd-2XCeyIu8_G5c"><defs><circle cx="0" cy="0" r="1250" id="utFdGfd-2XCeyIu8_G5c_pad-10"/><rect x="-1300.7975" y="-1050.798" width="2601.595" height="2101.596" rx="1050.798" ry="1050.798" id="utFdGfd-2XCeyIu8_G5c_pad-11"/><circle cx="0" cy="0" r="1050.8" id="utFdGfd-2XCeyIu8_G5c_pad-12"/><circle cx="0" cy="0" r="1150.8" id="utFdGfd-2XCeyIu8_G5c_pad-13"/><rect x="-1350.7974" y="-950.7982" width="2701.5948" height="1901.5964" rx="950.7982" ry="950.7982" id="utFdGfd-2XCeyIu8_G5c_pad-14"/><g id="utFdGfd-2XCeyIu8_G5c_pad-15"><circle cx="1300" cy="900" r="50.8"/><circle cx="1300" cy="0" r="50.8"/><circle cx="-1300" cy="-900" r="50.8"/><circle cx="-1300" cy="0" r="50.8"/><polygon points="1350.8,900 1350.8,NaN 1249.2,NaN 1249.2,900"/><polygon points="1350.8,NaN -1249.2,-900 -1350.8,-900 1249.2,NaN"/><polygon points="-1249.2,-900 -1249.2,NaN -1350.8,NaN -1350.8,-900"/><polygon points="-1249.2,NaN 1350.8,900 1249.2,900 -1350.8,NaN"/><polygon points="NaN,NaN NaN,NaN NaN,NaN NaN,NaN"/></g></defs><g transform="translate(0,0) scale(1,-1)" fill="currentColor" stroke="currentColor"><use xlink:href="#utFdGfd-2XCeyIu8_G5c_pad-10" x="15999.96" y="38299.89"/><use xlink:href="#utFdGfd-2XCeyIu8_G5c_pad-10" x="35999.92" y="38399.97"/><use xlink:href="#utFdGfd-2XCeyIu8_G5c_pad-11" x="40640" y="60833"/><use xlink:href="#utFdGfd-2XCeyIu8_G5c_pad-11" x="45720" y="60833"/><use xlink:href="#utFdGfd-2XCeyIu8_G5c_pad-11" x="35560" y="60833"/><use xlink:href="#utFdGfd-2XCeyIu8_G5c_pad-11" x="30480" y="60833"/><use xlink:href="#utFdGfd-2XCeyIu8_G5c_pad-12" x="56642" y="58074.55"/><use xlink:href="#utFdGfd-2XCeyIu8_G5c_pad-12" x="56642" y="63083.44"/><use xlink:href="#utFdGfd-2XCeyIu8_G5c_pad-12" x="56642" y="45374.55"/><use xlink:href="#utFdGfd-2XCeyIu8_G5c_pad-12" x="56642" y="50383.44"/><use xlink:href="#utFdGfd-2XCeyIu8_G5c_pad-12" x="56642" y="32674.55"/><use xlink:href="#utFdGfd-2XCeyIu8_G5c_pad-12" x="56642" y="37683.44"/><use xlink:href="#utFdGfd-2XCeyIu8_G5c_pad-13" x="20006.05" y="57531"/><use xlink:href="#utFdGfd-2XCeyIu8_G5c_pad-13" x="12506.19" y="57531"/><use xlink:href="#utFdGfd-2XCeyIu8_G5c_pad-14" x="31374.08" y="38481"/><use xlink:href="#utFdGfd-2XCeyIu8_G5c_pad-14" x="31363.91" y="35940.74"/><use xlink:href="#utFdGfd-2XCeyIu8_G5c_pad-15" x="31373.95" y="41021.12"/><use xlink:href="#utFdGfd-2XCeyIu8_G5c_pad-14" x="11435.07" y="38354"/><use xlink:href="#utFdGfd-2XCeyIu8_G5c_pad-14" x="11425.17" y="35813.74"/><use xlink:href="#utFdGfd-2XCeyIu8_G5c_pad-15" x="11434.95" y="40894.12"/></g></svg>