<svg version="1.1" xmlns="http://www.w3.org/2000/svg" xmlns:xlink="http://www.w3.org/1999/xlink" stroke-linecap="round" stroke-linejoin="round" stroke-width="0" fill-rule="evenodd" width="51.624697399999995mm" height="33.08345mm" viewBox="10125.1726 31674.55 51624.6974 33083.45" id="gSKm7QBhRn3Rp14MS8Qt"><defs><circle cx="0" cy="0" r="1200" id="gSKm7QBhRn3Rp14MS8Qt_pad-11"/><rect x="-1249.9975" y="-999.998" width="2499.995" height="1999.996" rx="999.998" ry="999.998" id="gSKm7QBhRn3Rp14MS8Qt_pad-12"/><circle cx="0" cy="0" r="1000" id="gSKm7QBhRn3Rp14MS8Qt_pad-13"/><circle cx="0" cy="0" r="1100" id="gSKm7QBhRn3Rp14MS8Qt_pad-14"/><rect x="-1299.9974" y="-899.9982" width="2599.9948" height="1799.9964" rx="899.9982" ry="899.9982" id="gSKm7QBhRn3Rp14MS8Qt_pad-15"/><rect x="-1300" y="-900" width="2600" height="1800" id="gSKm7QBhRn3Rp14MS8Qt_pad-16"/></defs><g transform="translate(0,96432.54999999999) scale(1,-1)" fill="currentColor" stroke="currentColor"><path d="M 56642 32674.55 60999.87 32674.55 60999.87 49999.89 57025.54 49999.89 56642 50383.44 M 11430 35814 11430 32999.68 48260 32999.68 48260 37846 56479.43 37846 56642 37683.44 M 31363.91 35940.74 42999.91 35940.74 42999.91 44999.9 56267.34 44999.9 56642 45374.55 M 11434.95 40894.12 11561.95 41021.12 31373.95 41021.12 M 11434.95 38354.12 11561.95 38481.12 31373.95 38481.12 M 12506.07 57531 11434.95 56459.88 11434.95 40894.12 M 30480 60833 27178 57531 20005.92 57531 M 31373.95 38481.12 38227 38481 38227 50292 38318.43 50383.44 56642 50383.44 M 38318.43 50383.44 38282.88 50419 20066 50419 20005.92 50479.07 20005.92 57531 M 56642 63083.44 56606.43 63119 50927 63119 50927 56769 40767 56769 40640 56896 40640 60833 M 45720 60833 42545 64008 12573 64008 12506.07 63941.07 12506.07 57531 M 56642 58074.55 56642 54483 56515 54356 35560 54356 35560 60833" fill="none" stroke-width="1500"/><use xlink:href="#gSKm7QBhRn3Rp14MS8Qt_pad-11" x="15999.96" y="38299.89"/><use xlink:href="#gSKm7QBhRn3Rp14MS8Qt_pad-11" x="35999.92" y="38399.97"/><use xlink:href="#gSKm7QBhRn3Rp14MS8Qt_pad-12" x="40640" y="60833"/><use xlink:href="#gSKm7QBhRn3Rp14MS8Qt_pad-12" x="45720" y="60833"/><use xlink:href="#gSKm7QBhRn3Rp14MS8Qt_pad-12" x="35560" y="60833"/><use xlink:href="#gSKm7QBhRn3Rp14MS8Qt_pad-12" x="30480" y="60833"/><use xlink:href="#gSKm7QBhRn3Rp14MS8Qt_pad-13" x="56642" y="58074.55"/><use xlink:href="#gSKm7QBhRn3Rp14MS8Qt_pad-13" x="56642" y="63083.44"/><use xlink:href="#gSKm7QBhRn3Rp14MS8Qt_pad-13" x="56642" y="45374.55"/><use xlink:href="#gSKm7QBhRn3Rp14MS8Qt_pad-13" x="56642" y="50383.44"/><use xlink:href="#gSKm7QBhRn3Rp14MS8Qt_pad-13" x="56642" y="32674.55"/><use xlink:href="#gSKm7QBhRn3Rp14MS8Qt_pad-13" x="56642" y="37683.44"/><use xlink:href="#gSKm7QBhRn3Rp14MS8Qt_pad-14" x="20006.05" y="57531"/><use xlink:href="#gSKm7QBhRn3Rp14MS8Qt_pad-14" x="12506.19" y="57531"/><use xlink:href="#gSKm7QBhRn3Rp14MS8Qt_pad-15" x="31374.08" y="38481"/><use xlink:href="#gSKm7QBhRn3Rp14MS8Qt_pad-15" x="31363.91" y="35940.74"/><use xlink:href="#gSKm7QBhRn3Rp14MS8Qt_pad-16" x="31374.08" y="41021"/><use xlink:href="#gSKm7QBhRn3Rp14MS8Qt_pad-15" x="11435.07" y="38354"/><use xlink:href="#gSKm7QBhRn3Rp14MS8Qt_pad-15" x="11425.17" y="35813.74"/><use xlink:href="#gSKm7QBhRn3Rp14MS8Qt_pad-16" x="11435.07" y="40894"/></g></svg>